<?xml version="1.0" encoding="UTF-8" standalone="no"?><svg xmlns="http://www.w3.org/2000/svg" xmlns:xlink="http://www.w3.org/1999/xlink" contentScriptType="application/ecmascript" contentStyleType="text/css" height="450px" preserveAspectRatio="none" style="width:1055px;height:450px;" version="1.1" viewBox="0 0 1055 450" width="1055px" zoomAndPan="magnify"><defs><filter height="300%" id="f120hxhwlzqyyp" width="300%" x="-1" y="-1"><feGaussianBlur result="blurOut" stdDeviation="2.0"/><feColorMatrix in="blurOut" result="blurOut2" type="matrix" values="0 0 0 0 0 0 0 0 0 0 0 0 0 0 0 0 0 0 .4 0"/><feOffset dx="4.0" dy="4.0" in="blurOut2" result="blurOut3"/><feBlend in="SourceGraphic" in2="blurOut3" mode="normal"/></filter></defs><g><!--MD5=[aab07c8285b720c4869802ba7d0bd128]
class ApplicationManager--><rect fill="#FEFECE" filter="url(#f120hxhwlzqyyp)" height="188.8516" id="ApplicationManager" style="stroke: #A80036; stroke-width: 1.5;" width="277" x="67.04" y="142"/><ellipse cx="139.29" cy="158" fill="#ADD1B2" rx="11" ry="11" style="stroke: #A80036; stroke-width: 1.0;"/><path d="M142.2588,163.6406 Q141.6806,163.9375 141.04,164.0781 Q140.3994,164.2344 139.6963,164.2344 Q137.1963,164.2344 135.8681,162.5938 Q134.5556,160.9375 134.5556,157.8125 Q134.5556,154.6875 135.8681,153.0313 Q137.1963,151.375 139.6963,151.375 Q140.3994,151.375 141.04,151.5313 Q141.6963,151.6875 142.2588,151.9844 L142.2588,154.7031 Q141.6338,154.125 141.04,153.8594 Q140.4463,153.5781 139.8213,153.5781 Q138.4775,153.5781 137.79,154.6563 Q137.1025,155.7188 137.1025,157.8125 Q137.1025,159.9063 137.79,160.9844 Q138.4775,162.0469 139.8213,162.0469 Q140.4463,162.0469 141.04,161.7813 Q141.6338,161.5 142.2588,160.9219 L142.2588,163.6406 Z "/><text fill="#000000" font-family="sans-serif" font-size="12" lengthAdjust="spacingAndGlyphs" textLength="124" x="159.79" y="162.1543">ApplicationManager</text><line style="stroke: #A80036; stroke-width: 1.5;" x1="68.04" x2="343.04" y1="174" y2="174"/><line style="stroke: #A80036; stroke-width: 1.5;" x1="68.04" x2="343.04" y1="182" y2="182"/><ellipse cx="78.04" cy="193" fill="#84BE84" rx="3" ry="3" style="stroke: #038048; stroke-width: 1.0;"/><text fill="#000000" font-family="sans-serif" font-size="11" lengthAdjust="spacingAndGlyphs" textLength="71" x="87.04" y="196.2104">Start() : void</text><ellipse cx="78.04" cy="205.8047" fill="#84BE84" rx="3" ry="3" style="stroke: #038048; stroke-width: 1.0;"/><text fill="#000000" font-family="sans-serif" font-size="11" lengthAdjust="spacingAndGlyphs" textLength="79" x="87.04" y="209.0151">Export() : void</text><ellipse cx="78.04" cy="218.6094" fill="#84BE84" rx="3" ry="3" style="stroke: #038048; stroke-width: 1.0;"/><text fill="#000000" font-family="sans-serif" font-size="11" lengthAdjust="spacingAndGlyphs" textLength="71" x="87.04" y="221.8198">Save() : void</text><ellipse cx="78.04" cy="231.4141" fill="#84BE84" rx="3" ry="3" style="stroke: #038048; stroke-width: 1.0;"/><text fill="#000000" font-family="sans-serif" font-size="11" lengthAdjust="spacingAndGlyphs" textLength="70" x="87.04" y="234.6245">Load() : void</text><ellipse cx="78.04" cy="244.2188" fill="#84BE84" rx="3" ry="3" style="stroke: #038048; stroke-width: 1.0;"/><text fill="#000000" font-family="sans-serif" font-size="11" lengthAdjust="spacingAndGlyphs" textLength="251" x="87.04" y="247.4292">ChangeInstrument(sequenceIndex:int) : void</text><ellipse cx="78.04" cy="257.0234" fill="#84BE84" rx="3" ry="3" style="stroke: #038048; stroke-width: 1.0;"/><text fill="#000000" font-family="sans-serif" font-size="11" lengthAdjust="spacingAndGlyphs" textLength="136" x="87.04" y="260.2339">MinNoteDuration() : void</text><ellipse cx="78.04" cy="269.8281" fill="#84BE84" rx="3" ry="3" style="stroke: #038048; stroke-width: 1.0;"/><text fill="#000000" font-family="sans-serif" font-size="11" lengthAdjust="spacingAndGlyphs" textLength="141" x="87.04" y="273.0386">PlusNoteDuration() : void</text><ellipse cx="78.04" cy="282.6328" fill="#84BE84" rx="3" ry="3" style="stroke: #038048; stroke-width: 1.0;"/><text fill="#000000" font-family="sans-serif" font-size="11" lengthAdjust="spacingAndGlyphs" textLength="66" x="87.04" y="285.8433">Play() : void</text><ellipse cx="78.04" cy="295.4375" fill="#84BE84" rx="3" ry="3" style="stroke: #038048; stroke-width: 1.0;"/><text fill="#000000" font-family="sans-serif" font-size="11" lengthAdjust="spacingAndGlyphs" textLength="69" x="87.04" y="298.6479">Stop() : void</text><ellipse cx="78.04" cy="308.2422" fill="#84BE84" rx="3" ry="3" style="stroke: #038048; stroke-width: 1.0;"/><text fill="#000000" font-family="sans-serif" font-size="11" lengthAdjust="spacingAndGlyphs" textLength="70" x="87.04" y="311.4526">Loop() : void</text><ellipse cx="78.04" cy="321.0469" fill="#84BE84" rx="3" ry="3" style="stroke: #038048; stroke-width: 1.0;"/><text fill="#000000" font-family="sans-serif" font-size="11" lengthAdjust="spacingAndGlyphs" textLength="136" x="87.04" y="324.2573">CloseApplication() : void</text><!--MD5=[1eabbe901fb6c2512139bd43acb42af3]
class ApplicationData--><rect fill="#FEFECE" filter="url(#f120hxhwlzqyyp)" height="73.6094" id="ApplicationData" style="stroke: #A80036; stroke-width: 1.5;" width="740" x="304.54" y="8"/><ellipse cx="620.79" cy="24" fill="#ADD1B2" rx="11" ry="11" style="stroke: #A80036; stroke-width: 1.0;"/><path d="M623.7588,29.6406 Q623.1806,29.9375 622.54,30.0781 Q621.8994,30.2344 621.1963,30.2344 Q618.6963,30.2344 617.3681,28.5938 Q616.0556,26.9375 616.0556,23.8125 Q616.0556,20.6875 617.3681,19.0313 Q618.6963,17.375 621.1963,17.375 Q621.8994,17.375 622.54,17.5313 Q623.1963,17.6875 623.7588,17.9844 L623.7588,20.7031 Q623.1338,20.125 622.54,19.8594 Q621.9463,19.5781 621.3213,19.5781 Q619.9775,19.5781 619.29,20.6563 Q618.6025,21.7188 618.6025,23.8125 Q618.6025,25.9063 619.29,26.9844 Q619.9775,28.0469 621.3213,28.0469 Q621.9463,28.0469 622.54,27.7813 Q623.1338,27.5 623.7588,26.9219 L623.7588,29.6406 Z "/><text fill="#000000" font-family="sans-serif" font-size="12" lengthAdjust="spacingAndGlyphs" textLength="99" x="641.29" y="28.1543">ApplicationData</text><line style="stroke: #A80036; stroke-width: 1.5;" x1="305.54" x2="1043.54" y1="40" y2="40"/><line style="stroke: #A80036; stroke-width: 1.5;" x1="305.54" x2="1043.54" y1="48" y2="48"/><ellipse cx="315.54" cy="59" fill="#84BE84" rx="3" ry="3" style="stroke: #038048; stroke-width: 1.0;"/><text fill="#000000" font-family="sans-serif" font-size="11" lengthAdjust="spacingAndGlyphs" textLength="95" x="324.54" y="62.2104">ApplicationData()</text><ellipse cx="315.54" cy="71.8047" fill="#84BE84" rx="3" ry="3" style="stroke: #038048; stroke-width: 1.0;"/><text fill="#000000" font-family="sans-serif" font-size="11" lengthAdjust="spacingAndGlyphs" textLength="714" x="324.54" y="75.0151">ApplicationData(sequenceA:SequenceData, sequenceB:SequenceData, sequenceC:SequenceData, sequenceD:SequenceData)</text><!--MD5=[e644022de7dea015dd09463c37421447]
class List`1--><rect fill="#FEFECE" filter="url(#f120hxhwlzqyyp)" height="48" id="List`1" style="stroke: #A80036; stroke-width: 1.5;" width="78" x="635.54" y="212.5"/><ellipse cx="650.54" cy="228.5" fill="#ADD1B2" rx="11" ry="11" style="stroke: #A80036; stroke-width: 1.0;"/><path d="M653.5088,234.1406 Q652.9306,234.4375 652.29,234.5781 Q651.6494,234.7344 650.9463,234.7344 Q648.4463,234.7344 647.1181,233.0938 Q645.8056,231.4375 645.8056,228.3125 Q645.8056,225.1875 647.1181,223.5313 Q648.4463,221.875 650.9463,221.875 Q651.6494,221.875 652.29,222.0313 Q652.9463,222.1875 653.5088,222.4844 L653.5088,225.2031 Q652.8838,224.625 652.29,224.3594 Q651.6963,224.0781 651.0713,224.0781 Q649.7275,224.0781 649.04,225.1563 Q648.3525,226.2188 648.3525,228.3125 Q648.3525,230.4063 649.04,231.4844 Q649.7275,232.5469 651.0713,232.5469 Q651.6963,232.5469 652.29,232.2813 Q652.8838,232 653.5088,231.4219 L653.5088,234.1406 Z "/><text fill="#000000" font-family="sans-serif" font-size="12" lengthAdjust="spacingAndGlyphs" textLength="35" x="664.54" y="232.6543">List`1</text><rect fill="#FFFFFF" height="15.9688" style="stroke: #000000; stroke-width: 1.0; stroke-dasharray: 2.0,2.0;" width="9" x="707.54" y="209.5"/><text fill="#000000" font-family="sans-serif" font-size="12" font-style="italic" lengthAdjust="spacingAndGlyphs" textLength="7" x="708.54" y="221.6387">T</text><line style="stroke: #A80036; stroke-width: 1.5;" x1="636.54" x2="712.54" y1="244.5" y2="244.5"/><line style="stroke: #A80036; stroke-width: 1.5;" x1="636.54" x2="712.54" y1="252.5" y2="252.5"/><!--MD5=[83b3cf3d23d77c6f1e1b5291a241bc2a]
class MonoBehaviour--><rect fill="#FEFECE" filter="url(#f120hxhwlzqyyp)" height="48" id="MonoBehaviour" style="stroke: #A80036; stroke-width: 1.5;" width="128" x="141.54" y="21"/><ellipse cx="156.54" cy="37" fill="#ADD1B2" rx="11" ry="11" style="stroke: #A80036; stroke-width: 1.0;"/><path d="M159.5088,42.6406 Q158.9306,42.9375 158.29,43.0781 Q157.6494,43.2344 156.9463,43.2344 Q154.4463,43.2344 153.1181,41.5938 Q151.8056,39.9375 151.8056,36.8125 Q151.8056,33.6875 153.1181,32.0313 Q154.4463,30.375 156.9463,30.375 Q157.6494,30.375 158.29,30.5313 Q158.9463,30.6875 159.5088,30.9844 L159.5088,33.7031 Q158.8838,33.125 158.29,32.8594 Q157.6963,32.5781 157.0713,32.5781 Q155.7275,32.5781 155.04,33.6563 Q154.3525,34.7188 154.3525,36.8125 Q154.3525,38.9063 155.04,39.9844 Q155.7275,41.0469 157.0713,41.0469 Q157.6963,41.0469 158.29,40.7813 Q158.8838,40.5 159.5088,39.9219 L159.5088,42.6406 Z "/><text fill="#000000" font-family="sans-serif" font-size="12" lengthAdjust="spacingAndGlyphs" textLength="96" x="170.54" y="41.1543">MonoBehaviour</text><line style="stroke: #A80036; stroke-width: 1.5;" x1="142.54" x2="268.54" y1="53" y2="53"/><line style="stroke: #A80036; stroke-width: 1.5;" x1="142.54" x2="268.54" y1="61" y2="61"/><!--MD5=[5bd1e51f08dfb2ded48ef521a149c3c7]
class InstrumentSprites--><rect fill="#FEFECE" filter="url(#f120hxhwlzqyyp)" height="48" id="InstrumentSprites" style="stroke: #A80036; stroke-width: 1.5;" width="144" x="53.54" y="391"/><ellipse cx="68.54" cy="407" fill="#ADD1B2" rx="11" ry="11" style="stroke: #A80036; stroke-width: 1.0;"/><path d="M71.5087,412.6406 Q70.9306,412.9375 70.29,413.0781 Q69.6494,413.2344 68.9462,413.2344 Q66.4462,413.2344 65.1181,411.5938 Q63.8056,409.9375 63.8056,406.8125 Q63.8056,403.6875 65.1181,402.0313 Q66.4462,400.375 68.9462,400.375 Q69.6494,400.375 70.29,400.5313 Q70.9462,400.6875 71.5087,400.9844 L71.5087,403.7031 Q70.8837,403.125 70.29,402.8594 Q69.6962,402.5781 69.0712,402.5781 Q67.7275,402.5781 67.04,403.6563 Q66.3525,404.7188 66.3525,406.8125 Q66.3525,408.9063 67.04,409.9844 Q67.7275,411.0469 69.0712,411.0469 Q69.6962,411.0469 70.29,410.7813 Q70.8837,410.5 71.5087,409.9219 L71.5087,412.6406 Z "/><text fill="#000000" font-family="sans-serif" font-size="12" lengthAdjust="spacingAndGlyphs" textLength="112" x="82.54" y="411.1543">InstrumentSprites</text><line style="stroke: #A80036; stroke-width: 1.5;" x1="54.54" x2="196.54" y1="423" y2="423"/><line style="stroke: #A80036; stroke-width: 1.5;" x1="54.54" x2="196.54" y1="431" y2="431"/><!--MD5=[064f7a74fee85463ec1a30143664ee17]
class GameObject--><rect fill="#FEFECE" filter="url(#f120hxhwlzqyyp)" height="48" id="GameObject" style="stroke: #A80036; stroke-width: 1.5;" width="108" x="232.54" y="391"/><ellipse cx="247.54" cy="407" fill="#ADD1B2" rx="11" ry="11" style="stroke: #A80036; stroke-width: 1.0;"/><path d="M250.5088,412.6406 Q249.9306,412.9375 249.29,413.0781 Q248.6494,413.2344 247.9463,413.2344 Q245.4463,413.2344 244.1181,411.5938 Q242.8056,409.9375 242.8056,406.8125 Q242.8056,403.6875 244.1181,402.0313 Q245.4463,400.375 247.9463,400.375 Q248.6494,400.375 249.29,400.5313 Q249.9463,400.6875 250.5088,400.9844 L250.5088,403.7031 Q249.8838,403.125 249.29,402.8594 Q248.6963,402.5781 248.0713,402.5781 Q246.7275,402.5781 246.04,403.6563 Q245.3525,404.7188 245.3525,406.8125 Q245.3525,408.9063 246.04,409.9844 Q246.7275,411.0469 248.0713,411.0469 Q248.6963,411.0469 249.29,410.7813 Q249.8838,410.5 250.5088,409.9219 L250.5088,412.6406 Z "/><text fill="#000000" font-family="sans-serif" font-size="12" lengthAdjust="spacingAndGlyphs" textLength="76" x="261.54" y="411.1543">GameObject</text><line style="stroke: #A80036; stroke-width: 1.5;" x1="233.54" x2="339.54" y1="423" y2="423"/><line style="stroke: #A80036; stroke-width: 1.5;" x1="233.54" x2="339.54" y1="431" y2="431"/><!--MD5=[f8c72823213906eaf63ae2cb988419cb]
reverse link MonoBehaviour to ApplicationManager--><path d="M205.54,89.38 C205.54,105.1 205.54,123.54 205.54,141.91 " fill="none" id="MonoBehaviour&lt;-ApplicationManager" style="stroke: #A80036; stroke-width: 1.0;"/><polygon fill="none" points="198.54,89.24,205.54,69.24,212.54,89.24,198.54,89.24" style="stroke: #A80036; stroke-width: 1.0;"/><!--MD5=[3769787c709d87e8f27e226efa6f9a3f]
link ApplicationManager to InstrumentSprites--><path d="M163.08,331.18 C153.93,351.37 144.95,371.17 138.07,386.35 " fill="none" id="ApplicationManager-&gt;InstrumentSprites" style="stroke: #A80036; stroke-width: 1.0;"/><polygon fill="#A80036" points="136,390.91,143.3487,384.3528,138.0572,386.3528,136.0571,381.0613,136,390.91" style="stroke: #A80036; stroke-width: 1.0;"/><text fill="#000000" font-family="sans-serif" font-size="13" lengthAdjust="spacingAndGlyphs" textLength="115" x="8.946" y="379.899">instrumentSprites</text><!--MD5=[eb0a0d36489d249b1de878be499d2d1b]
link ApplicationManager to GameObject--><path d="M248.53,331.18 C257.79,351.37 266.88,371.17 273.85,386.35 " fill="none" id="ApplicationManager-&gt;GameObject" style="stroke: #A80036; stroke-width: 1.0;"/><polygon fill="#A80036" points="275.94,390.91,275.82,381.0619,273.8538,386.366,268.5496,384.3998,275.94,390.91" style="stroke: #A80036; stroke-width: 1.0;"/><text fill="#000000" font-family="sans-serif" font-size="13" lengthAdjust="spacingAndGlyphs" textLength="84" x="201.3528" y="379.826">sequenceBar</text><!--MD5=[da736ce3c69bcf0425bfd13eef9a9dd5]
link ApplicationData to List`1--><path d="M674.54,82.09 C674.54,118.48 674.54,173.9 674.54,207.22 " fill="none" id="ApplicationData-&gt;List`1" style="stroke: #A80036; stroke-width: 1.0;"/><polygon fill="#A80036" points="674.54,212.37,678.54,203.37,674.54,207.37,670.54,203.37,674.54,212.37" style="stroke: #A80036; stroke-width: 1.0;"/><text fill="#000000" font-family="sans-serif" font-size="13" lengthAdjust="spacingAndGlyphs" textLength="186" x="464.7088" y="201.3487">sequences&lt;SequenceData&gt;</text><!--MD5=[31b0858af561aebbd662fca1d49de72e]
@startuml
class ApplicationManager {
    + Start() : void
    + Export() : void
    + Save() : void
    + Load() : void
    + ChangeInstrument(sequenceIndex:int) : void
    + MinNoteDuration() : void
    + PlusNoteDuration() : void
    + Play() : void
    + Stop() : void
    + Loop() : void
    + CloseApplication() : void
}
class ApplicationData {
    + ApplicationData()
    + ApplicationData(sequenceA:SequenceData, sequenceB:SequenceData, sequenceC:SequenceData, sequenceD:SequenceData)
}
class "List`1"<T> {
}
MonoBehaviour <|- - ApplicationManager
ApplicationManager - -> "instrumentSprites" InstrumentSprites
ApplicationManager - -> "sequenceBar" GameObject
ApplicationData - -> "sequences<SequenceData>" "List`1"
@enduml

PlantUML version 1.2020.02(Sun Mar 01 10:22:07 GMT 2020)
(GPL source distribution)
Java Runtime: OpenJDK Runtime Environment
JVM: OpenJDK 64-Bit Server VM
Java Version: 11.0.9+11-Ubuntu-0ubuntu1
Operating System: Linux
Default Encoding: ANSI_X3.4-1968
Language: en
Country: US
--></g></svg>