<?xml version="1.0" encoding="UTF-8" standalone="no"?><svg xmlns="http://www.w3.org/2000/svg" xmlns:xlink="http://www.w3.org/1999/xlink" contentScriptType="application/ecmascript" contentStyleType="text/css" height="303px" preserveAspectRatio="none" style="width:937px;height:303px;" version="1.1" viewBox="0 0 937 303" width="937px" zoomAndPan="magnify"><defs><filter height="300%" id="fmxpp4nz5yhry" width="300%" x="-1" y="-1"><feGaussianBlur result="blurOut" stdDeviation="2.0"/><feColorMatrix in="blurOut" result="blurOut2" type="matrix" values="0 0 0 0 0 0 0 0 0 0 0 0 0 0 0 0 0 0 .4 0"/><feOffset dx="4.0" dy="4.0" in="blurOut2" result="blurOut3"/><feBlend in="SourceGraphic" in2="blurOut3" mode="normal"/></filter></defs><g><!--MD5=[aab07c8285b720c4869802ba7d0bd128]
class ApplicationManager--><rect fill="#FEFECE" filter="url(#fmxpp4nz5yhry)" height="150.4375" id="ApplicationManager" style="stroke: #A80036; stroke-width: 1.5;" width="162" x="6" y="142"/><ellipse cx="23.7" cy="158" fill="#ADD1B2" rx="11" ry="11" style="stroke: #A80036; stroke-width: 1.0;"/><path d="M26.6688,163.6406 Q26.0906,163.9375 25.45,164.0781 Q24.8094,164.2344 24.1063,164.2344 Q21.6063,164.2344 20.2781,162.5938 Q18.9656,160.9375 18.9656,157.8125 Q18.9656,154.6875 20.2781,153.0313 Q21.6063,151.375 24.1063,151.375 Q24.8094,151.375 25.45,151.5313 Q26.1063,151.6875 26.6688,151.9844 L26.6688,154.7031 Q26.0438,154.125 25.45,153.8594 Q24.8563,153.5781 24.2313,153.5781 Q22.8875,153.5781 22.2,154.6563 Q21.5125,155.7188 21.5125,157.8125 Q21.5125,159.9063 22.2,160.9844 Q22.8875,162.0469 24.2313,162.0469 Q24.8563,162.0469 25.45,161.7813 Q26.0438,161.5 26.6688,160.9219 L26.6688,163.6406 Z "/><text fill="#000000" font-family="sans-serif" font-size="12" lengthAdjust="spacingAndGlyphs" textLength="124" x="38.3" y="162.1543">ApplicationManager</text><line style="stroke: #A80036; stroke-width: 1.5;" x1="7" x2="167" y1="174" y2="174"/><line style="stroke: #A80036; stroke-width: 1.5;" x1="7" x2="167" y1="182" y2="182"/><ellipse cx="17" cy="193" fill="#84BE84" rx="3" ry="3" style="stroke: #038048; stroke-width: 1.0;"/><text fill="#000000" font-family="sans-serif" font-size="11" lengthAdjust="spacingAndGlyphs" textLength="71" x="26" y="196.2104">Start() : void</text><ellipse cx="17" cy="205.8047" fill="#84BE84" rx="3" ry="3" style="stroke: #038048; stroke-width: 1.0;"/><text fill="#000000" font-family="sans-serif" font-size="11" lengthAdjust="spacingAndGlyphs" textLength="79" x="26" y="209.0151">Export() : void</text><ellipse cx="17" cy="218.6094" fill="#84BE84" rx="3" ry="3" style="stroke: #038048; stroke-width: 1.0;"/><text fill="#000000" font-family="sans-serif" font-size="11" lengthAdjust="spacingAndGlyphs" textLength="71" x="26" y="221.8198">Save() : void</text><ellipse cx="17" cy="231.4141" fill="#84BE84" rx="3" ry="3" style="stroke: #038048; stroke-width: 1.0;"/><text fill="#000000" font-family="sans-serif" font-size="11" lengthAdjust="spacingAndGlyphs" textLength="70" x="26" y="234.6245">Load() : void</text><ellipse cx="17" cy="244.2188" fill="#84BE84" rx="3" ry="3" style="stroke: #038048; stroke-width: 1.0;"/><text fill="#000000" font-family="sans-serif" font-size="11" lengthAdjust="spacingAndGlyphs" textLength="66" x="26" y="247.4292">Play() : void</text><ellipse cx="17" cy="257.0234" fill="#84BE84" rx="3" ry="3" style="stroke: #038048; stroke-width: 1.0;"/><text fill="#000000" font-family="sans-serif" font-size="11" lengthAdjust="spacingAndGlyphs" textLength="69" x="26" y="260.2339">Stop() : void</text><ellipse cx="17" cy="269.8281" fill="#84BE84" rx="3" ry="3" style="stroke: #038048; stroke-width: 1.0;"/><text fill="#000000" font-family="sans-serif" font-size="11" lengthAdjust="spacingAndGlyphs" textLength="70" x="26" y="273.0386">Loop() : void</text><ellipse cx="17" cy="282.6328" fill="#84BE84" rx="3" ry="3" style="stroke: #038048; stroke-width: 1.0;"/><text fill="#000000" font-family="sans-serif" font-size="11" lengthAdjust="spacingAndGlyphs" textLength="136" x="26" y="285.8433">CloseApplication() : void</text><!--MD5=[1eabbe901fb6c2512139bd43acb42af3]
class ApplicationData--><rect fill="#FEFECE" filter="url(#fmxpp4nz5yhry)" height="73.6094" id="ApplicationData" style="stroke: #A80036; stroke-width: 1.5;" width="740" x="186" y="8"/><ellipse cx="502.25" cy="24" fill="#ADD1B2" rx="11" ry="11" style="stroke: #A80036; stroke-width: 1.0;"/><path d="M505.2188,29.6406 Q504.6406,29.9375 504,30.0781 Q503.3594,30.2344 502.6563,30.2344 Q500.1563,30.2344 498.8281,28.5938 Q497.5156,26.9375 497.5156,23.8125 Q497.5156,20.6875 498.8281,19.0313 Q500.1563,17.375 502.6563,17.375 Q503.3594,17.375 504,17.5313 Q504.6563,17.6875 505.2188,17.9844 L505.2188,20.7031 Q504.5938,20.125 504,19.8594 Q503.4063,19.5781 502.7813,19.5781 Q501.4375,19.5781 500.75,20.6563 Q500.0625,21.7188 500.0625,23.8125 Q500.0625,25.9063 500.75,26.9844 Q501.4375,28.0469 502.7813,28.0469 Q503.4063,28.0469 504,27.7813 Q504.5938,27.5 505.2188,26.9219 L505.2188,29.6406 Z "/><text fill="#000000" font-family="sans-serif" font-size="12" lengthAdjust="spacingAndGlyphs" textLength="99" x="522.75" y="28.1543">ApplicationData</text><line style="stroke: #A80036; stroke-width: 1.5;" x1="187" x2="925" y1="40" y2="40"/><line style="stroke: #A80036; stroke-width: 1.5;" x1="187" x2="925" y1="48" y2="48"/><ellipse cx="197" cy="59" fill="#84BE84" rx="3" ry="3" style="stroke: #038048; stroke-width: 1.0;"/><text fill="#000000" font-family="sans-serif" font-size="11" lengthAdjust="spacingAndGlyphs" textLength="95" x="206" y="62.2104">ApplicationData()</text><ellipse cx="197" cy="71.8047" fill="#84BE84" rx="3" ry="3" style="stroke: #038048; stroke-width: 1.0;"/><text fill="#000000" font-family="sans-serif" font-size="11" lengthAdjust="spacingAndGlyphs" textLength="714" x="206" y="75.0151">ApplicationData(sequenceA:SequenceData, sequenceB:SequenceData, sequenceC:SequenceData, sequenceD:SequenceData)</text><!--MD5=[e644022de7dea015dd09463c37421447]
class List`1--><rect fill="#FEFECE" filter="url(#fmxpp4nz5yhry)" height="48" id="List`1" style="stroke: #A80036; stroke-width: 1.5;" width="78" x="517" y="193"/><ellipse cx="532" cy="209" fill="#ADD1B2" rx="11" ry="11" style="stroke: #A80036; stroke-width: 1.0;"/><path d="M534.9688,214.6406 Q534.3906,214.9375 533.75,215.0781 Q533.1094,215.2344 532.4063,215.2344 Q529.9063,215.2344 528.5781,213.5938 Q527.2656,211.9375 527.2656,208.8125 Q527.2656,205.6875 528.5781,204.0313 Q529.9063,202.375 532.4063,202.375 Q533.1094,202.375 533.75,202.5313 Q534.4063,202.6875 534.9688,202.9844 L534.9688,205.7031 Q534.3438,205.125 533.75,204.8594 Q533.1563,204.5781 532.5313,204.5781 Q531.1875,204.5781 530.5,205.6563 Q529.8125,206.7188 529.8125,208.8125 Q529.8125,210.9063 530.5,211.9844 Q531.1875,213.0469 532.5313,213.0469 Q533.1563,213.0469 533.75,212.7813 Q534.3438,212.5 534.9688,211.9219 L534.9688,214.6406 Z "/><text fill="#000000" font-family="sans-serif" font-size="12" lengthAdjust="spacingAndGlyphs" textLength="35" x="546" y="213.1543">List`1</text><rect fill="#FFFFFF" height="15.9688" style="stroke: #000000; stroke-width: 1.0; stroke-dasharray: 2.0,2.0;" width="9" x="589" y="190"/><text fill="#000000" font-family="sans-serif" font-size="12" font-style="italic" lengthAdjust="spacingAndGlyphs" textLength="7" x="590" y="202.1387">T</text><line style="stroke: #A80036; stroke-width: 1.5;" x1="518" x2="594" y1="225" y2="225"/><line style="stroke: #A80036; stroke-width: 1.5;" x1="518" x2="594" y1="233" y2="233"/><!--MD5=[83b3cf3d23d77c6f1e1b5291a241bc2a]
class MonoBehaviour--><rect fill="#FEFECE" filter="url(#fmxpp4nz5yhry)" height="48" id="MonoBehaviour" style="stroke: #A80036; stroke-width: 1.5;" width="128" x="23" y="21"/><ellipse cx="38" cy="37" fill="#ADD1B2" rx="11" ry="11" style="stroke: #A80036; stroke-width: 1.0;"/><path d="M40.9688,42.6406 Q40.3906,42.9375 39.75,43.0781 Q39.1094,43.2344 38.4063,43.2344 Q35.9063,43.2344 34.5781,41.5938 Q33.2656,39.9375 33.2656,36.8125 Q33.2656,33.6875 34.5781,32.0313 Q35.9063,30.375 38.4063,30.375 Q39.1094,30.375 39.75,30.5313 Q40.4063,30.6875 40.9688,30.9844 L40.9688,33.7031 Q40.3438,33.125 39.75,32.8594 Q39.1563,32.5781 38.5313,32.5781 Q37.1875,32.5781 36.5,33.6563 Q35.8125,34.7188 35.8125,36.8125 Q35.8125,38.9063 36.5,39.9844 Q37.1875,41.0469 38.5313,41.0469 Q39.1563,41.0469 39.75,40.7813 Q40.3438,40.5 40.9688,39.9219 L40.9688,42.6406 Z "/><text fill="#000000" font-family="sans-serif" font-size="12" lengthAdjust="spacingAndGlyphs" textLength="96" x="52" y="41.1543">MonoBehaviour</text><line style="stroke: #A80036; stroke-width: 1.5;" x1="24" x2="150" y1="53" y2="53"/><line style="stroke: #A80036; stroke-width: 1.5;" x1="24" x2="150" y1="61" y2="61"/><!--MD5=[f8c72823213906eaf63ae2cb988419cb]
reverse link MonoBehaviour to ApplicationManager--><path d="M87,89.46 C87,105.42 87,123.98 87,141.88 " fill="none" id="MonoBehaviour&lt;-ApplicationManager" style="stroke: #A80036; stroke-width: 1.0;"/><polygon fill="none" points="80,89.28,87,69.28,94,89.28,80,89.28" style="stroke: #A80036; stroke-width: 1.0;"/><!--MD5=[da736ce3c69bcf0425bfd13eef9a9dd5]
link ApplicationData to List`1--><path d="M556,82.05 C556,113.52 556,158.58 556,187.56 " fill="none" id="ApplicationData-&gt;List`1" style="stroke: #A80036; stroke-width: 1.0;"/><polygon fill="#A80036" points="556,192.78,560,183.78,556,187.78,552,183.78,556,192.78" style="stroke: #A80036; stroke-width: 1.0;"/><text fill="#000000" font-family="sans-serif" font-size="13" lengthAdjust="spacingAndGlyphs" textLength="186" x="347.3313" y="182.1313">sequences&lt;SequenceData&gt;</text><!--MD5=[0dabe7f22f3bc5f0ba61cd4b1933b51c]
@startuml
class ApplicationManager {
    + Start() : void
    + Export() : void
    + Save() : void
    + Load() : void
    + Play() : void
    + Stop() : void
    + Loop() : void
    + CloseApplication() : void
}
class ApplicationData {
    + ApplicationData()
    + ApplicationData(sequenceA:SequenceData, sequenceB:SequenceData, sequenceC:SequenceData, sequenceD:SequenceData)
}
class "List`1"<T> {
}
MonoBehaviour <|- - ApplicationManager
ApplicationData - -> "sequences<SequenceData>" "List`1"
@enduml

PlantUML version 1.2020.02(Sun Mar 01 10:22:07 GMT 2020)
(GPL source distribution)
Java Runtime: OpenJDK Runtime Environment
JVM: OpenJDK 64-Bit Server VM
Java Version: 11.0.9+11-Ubuntu-0ubuntu1
Operating System: Linux
Default Encoding: ANSI_X3.4-1968
Language: en
Country: US
--></g></svg>