<?xml version="1.0" encoding="UTF-8" standalone="no"?><svg xmlns="http://www.w3.org/2000/svg" xmlns:xlink="http://www.w3.org/1999/xlink" contentScriptType="application/ecmascript" contentStyleType="text/css" height="78px" preserveAspectRatio="none" style="width:301px;height:78px;" version="1.1" viewBox="0 0 301 78" width="301px" zoomAndPan="magnify"><defs><filter height="300%" id="f19dlfsgiretrk" width="300%" x="-1" y="-1"><feGaussianBlur result="blurOut" stdDeviation="2.0"/><feColorMatrix in="blurOut" result="blurOut2" type="matrix" values="0 0 0 0 0 0 0 0 0 0 0 0 0 0 0 0 0 0 .4 0"/><feOffset dx="4.0" dy="4.0" in="blurOut2" result="blurOut3"/><feBlend in="SourceGraphic" in2="blurOut3" mode="normal"/></filter></defs><g><!--MD5=[aa4617302d5207a1740f8e35839836af]
class Exporter--><rect fill="#FEFECE" filter="url(#f19dlfsgiretrk)" height="60.8047" id="Exporter" style="stroke: #A80036; stroke-width: 1.5;" width="283" x="7" y="7"/><ellipse cx="117.75" cy="23" fill="#ADD1B2" rx="11" ry="11" style="stroke: #A80036; stroke-width: 1.0;"/><path d="M120.7188,28.6406 Q120.1406,28.9375 119.5,29.0781 Q118.8594,29.2344 118.1563,29.2344 Q115.6563,29.2344 114.3281,27.5938 Q113.0156,25.9375 113.0156,22.8125 Q113.0156,19.6875 114.3281,18.0313 Q115.6563,16.375 118.1563,16.375 Q118.8594,16.375 119.5,16.5313 Q120.1563,16.6875 120.7188,16.9844 L120.7188,19.7031 Q120.0938,19.125 119.5,18.8594 Q118.9063,18.5781 118.2813,18.5781 Q116.9375,18.5781 116.25,19.6563 Q115.5625,20.7188 115.5625,22.8125 Q115.5625,24.9063 116.25,25.9844 Q116.9375,27.0469 118.2813,27.0469 Q118.9063,27.0469 119.5,26.7813 Q120.0938,26.5 120.7188,25.9219 L120.7188,28.6406 Z "/><text fill="#000000" font-family="sans-serif" font-size="12" lengthAdjust="spacingAndGlyphs" textLength="53" x="138.25" y="27.1543">Exporter</text><line style="stroke: #A80036; stroke-width: 1.5;" x1="8" x2="289" y1="39" y2="39"/><line style="stroke: #A80036; stroke-width: 1.5;" x1="8" x2="289" y1="47" y2="47"/><ellipse cx="18" cy="58" fill="#84BE84" rx="3" ry="3" style="stroke: #038048; stroke-width: 1.0;"/><text fill="#000000" font-family="sans-serif" font-size="11" lengthAdjust="spacingAndGlyphs" textLength="257" x="27" y="61.2104">Export(applicationData:ApplicationData) : void</text><!--MD5=[3133da109e0f1546a212d97bade2b664]
@startuml
class Exporter {
    + Export(applicationData:ApplicationData) : void
}
@enduml

PlantUML version 1.2020.02(Sun Mar 01 10:22:07 GMT 2020)
(GPL source distribution)
Java Runtime: OpenJDK Runtime Environment
JVM: OpenJDK 64-Bit Server VM
Java Version: 11.0.9+11-Ubuntu-0ubuntu1
Operating System: Linux
Default Encoding: ANSI_X3.4-1968
Language: en
Country: US
--></g></svg>