<?xml version="1.0" encoding="UTF-8" standalone="no"?><svg xmlns="http://www.w3.org/2000/svg" xmlns:xlink="http://www.w3.org/1999/xlink" contentScriptType="application/ecmascript" contentStyleType="text/css" height="187px" preserveAspectRatio="none" style="width:300px;height:187px;" version="1.1" viewBox="0 0 300 187" width="300px" zoomAndPan="magnify"><defs><filter height="300%" id="f1lgwk2amcefdw" width="300%" x="-1" y="-1"><feGaussianBlur result="blurOut" stdDeviation="2.0"/><feColorMatrix in="blurOut" result="blurOut2" type="matrix" values="0 0 0 0 0 0 0 0 0 0 0 0 0 0 0 0 0 0 .4 0"/><feOffset dx="4.0" dy="4.0" in="blurOut2" result="blurOut3"/><feBlend in="SourceGraphic" in2="blurOut3" mode="normal"/></filter></defs><g><!--MD5=[aa4617302d5207a1740f8e35839836af]
class Exporter--><rect fill="#FEFECE" filter="url(#f1lgwk2amcefdw)" height="60.8047" id="Exporter" style="stroke: #A80036; stroke-width: 1.5;" width="283" x="6" y="116"/><ellipse cx="116.75" cy="132" fill="#ADD1B2" rx="11" ry="11" style="stroke: #A80036; stroke-width: 1.0;"/><path d="M119.7188,137.6406 Q119.1406,137.9375 118.5,138.0781 Q117.8594,138.2344 117.1563,138.2344 Q114.6563,138.2344 113.3281,136.5938 Q112.0156,134.9375 112.0156,131.8125 Q112.0156,128.6875 113.3281,127.0313 Q114.6563,125.375 117.1563,125.375 Q117.8594,125.375 118.5,125.5313 Q119.1563,125.6875 119.7188,125.9844 L119.7188,128.7031 Q119.0938,128.125 118.5,127.8594 Q117.9063,127.5781 117.2813,127.5781 Q115.9375,127.5781 115.25,128.6563 Q114.5625,129.7188 114.5625,131.8125 Q114.5625,133.9063 115.25,134.9844 Q115.9375,136.0469 117.2813,136.0469 Q117.9063,136.0469 118.5,135.7813 Q119.0938,135.5 119.7188,134.9219 L119.7188,137.6406 Z "/><text fill="#000000" font-family="sans-serif" font-size="12" lengthAdjust="spacingAndGlyphs" textLength="53" x="137.25" y="136.1543">Exporter</text><line style="stroke: #A80036; stroke-width: 1.5;" x1="7" x2="288" y1="148" y2="148"/><line style="stroke: #A80036; stroke-width: 1.5;" x1="7" x2="288" y1="156" y2="156"/><ellipse cx="17" cy="167" fill="#84BE84" rx="3" ry="3" style="stroke: #038048; stroke-width: 1.0;"/><text fill="#000000" font-family="sans-serif" font-size="11" lengthAdjust="spacingAndGlyphs" textLength="257" x="26" y="170.2104">Export(applicationData:ApplicationData) : void</text><!--MD5=[83b3cf3d23d77c6f1e1b5291a241bc2a]
class MonoBehaviour--><rect fill="#FEFECE" filter="url(#f1lgwk2amcefdw)" height="48" id="MonoBehaviour" style="stroke: #A80036; stroke-width: 1.5;" width="128" x="83.5" y="8"/><ellipse cx="98.5" cy="24" fill="#ADD1B2" rx="11" ry="11" style="stroke: #A80036; stroke-width: 1.0;"/><path d="M101.4688,29.6406 Q100.8906,29.9375 100.25,30.0781 Q99.6094,30.2344 98.9063,30.2344 Q96.4063,30.2344 95.0781,28.5938 Q93.7656,26.9375 93.7656,23.8125 Q93.7656,20.6875 95.0781,19.0313 Q96.4063,17.375 98.9063,17.375 Q99.6094,17.375 100.25,17.5313 Q100.9063,17.6875 101.4688,17.9844 L101.4688,20.7031 Q100.8438,20.125 100.25,19.8594 Q99.6563,19.5781 99.0313,19.5781 Q97.6875,19.5781 97,20.6563 Q96.3125,21.7188 96.3125,23.8125 Q96.3125,25.9063 97,26.9844 Q97.6875,28.0469 99.0313,28.0469 Q99.6563,28.0469 100.25,27.7813 Q100.8438,27.5 101.4688,26.9219 L101.4688,29.6406 Z "/><text fill="#000000" font-family="sans-serif" font-size="12" lengthAdjust="spacingAndGlyphs" textLength="96" x="112.5" y="28.1543">MonoBehaviour</text><line style="stroke: #A80036; stroke-width: 1.5;" x1="84.5" x2="210.5" y1="40" y2="40"/><line style="stroke: #A80036; stroke-width: 1.5;" x1="84.5" x2="210.5" y1="48" y2="48"/><!--MD5=[46e5a8055f1aba05b769cc49e3c8bb7f]
reverse link MonoBehaviour to Exporter--><path d="M147.5,76.11 C147.5,89.31 147.5,103.54 147.5,115.65 " fill="none" id="MonoBehaviour&lt;-Exporter" style="stroke: #A80036; stroke-width: 1.0;"/><polygon fill="none" points="140.5,76.04,147.5,56.04,154.5,76.04,140.5,76.04" style="stroke: #A80036; stroke-width: 1.0;"/><!--MD5=[b3afd5d0c73d52d1c233a2256b44e61c]
@startuml
class Exporter {
    + Export(applicationData:ApplicationData) : void
}
MonoBehaviour <|- - Exporter
@enduml

PlantUML version 1.2020.02(Sun Mar 01 10:22:07 GMT 2020)
(GPL source distribution)
Java Runtime: OpenJDK Runtime Environment
JVM: OpenJDK 64-Bit Server VM
Java Version: 11.0.9+11-Ubuntu-0ubuntu1
Operating System: Linux
Default Encoding: ANSI_X3.4-1968
Language: en
Country: US
--></g></svg>