<?xml version="1.0" encoding="UTF-8" standalone="no"?><svg xmlns="http://www.w3.org/2000/svg" xmlns:xlink="http://www.w3.org/1999/xlink" contentScriptType="application/ecmascript" contentStyleType="text/css" height="283px" preserveAspectRatio="none" style="width:254px;height:283px;" version="1.1" viewBox="0 0 254 283" width="254px" zoomAndPan="magnify"><defs><filter height="300%" id="f14d6novy26au" width="300%" x="-1" y="-1"><feGaussianBlur result="blurOut" stdDeviation="2.0"/><feColorMatrix in="blurOut" result="blurOut2" type="matrix" values="0 0 0 0 0 0 0 0 0 0 0 0 0 0 0 0 0 0 .4 0"/><feOffset dx="4.0" dy="4.0" in="blurOut2" result="blurOut3"/><feBlend in="SourceGraphic" in2="blurOut3" mode="normal"/></filter></defs><g><!--MD5=[5bd1e51f08dfb2ded48ef521a149c3c7]
class InstrumentSprites--><rect fill="#FEFECE" filter="url(#f14d6novy26au)" height="48" id="InstrumentSprites" style="stroke: #A80036; stroke-width: 1.5;" width="144" x="63.96" y="116"/><ellipse cx="78.96" cy="132" fill="#ADD1B2" rx="11" ry="11" style="stroke: #A80036; stroke-width: 1.0;"/><path d="M81.9288,137.6406 Q81.3506,137.9375 80.71,138.0781 Q80.0694,138.2344 79.3663,138.2344 Q76.8663,138.2344 75.5381,136.5938 Q74.2256,134.9375 74.2256,131.8125 Q74.2256,128.6875 75.5381,127.0313 Q76.8663,125.375 79.3663,125.375 Q80.0694,125.375 80.71,125.5313 Q81.3663,125.6875 81.9288,125.9844 L81.9288,128.7031 Q81.3038,128.125 80.71,127.8594 Q80.1163,127.5781 79.4913,127.5781 Q78.1475,127.5781 77.46,128.6563 Q76.7725,129.7188 76.7725,131.8125 Q76.7725,133.9063 77.46,134.9844 Q78.1475,136.0469 79.4913,136.0469 Q80.1163,136.0469 80.71,135.7813 Q81.3038,135.5 81.9288,134.9219 L81.9288,137.6406 Z "/><text fill="#000000" font-family="sans-serif" font-size="12" lengthAdjust="spacingAndGlyphs" textLength="112" x="92.96" y="136.1543">InstrumentSprites</text><line style="stroke: #A80036; stroke-width: 1.5;" x1="64.96" x2="206.96" y1="148" y2="148"/><line style="stroke: #A80036; stroke-width: 1.5;" x1="64.96" x2="206.96" y1="156" y2="156"/><!--MD5=[44895057fba17b10f3053a7baa21df04]
class ScriptableObject--><rect fill="#FEFECE" filter="url(#f14d6novy26au)" height="48" id="ScriptableObject" style="stroke: #A80036; stroke-width: 1.5;" width="135" x="68.46" y="8"/><ellipse cx="83.46" cy="24" fill="#ADD1B2" rx="11" ry="11" style="stroke: #A80036; stroke-width: 1.0;"/><path d="M86.4288,29.6406 Q85.8506,29.9375 85.21,30.0781 Q84.5694,30.2344 83.8663,30.2344 Q81.3663,30.2344 80.0381,28.5938 Q78.7256,26.9375 78.7256,23.8125 Q78.7256,20.6875 80.0381,19.0313 Q81.3663,17.375 83.8663,17.375 Q84.5694,17.375 85.21,17.5313 Q85.8663,17.6875 86.4288,17.9844 L86.4288,20.7031 Q85.8038,20.125 85.21,19.8594 Q84.6163,19.5781 83.9913,19.5781 Q82.6475,19.5781 81.96,20.6563 Q81.2725,21.7188 81.2725,23.8125 Q81.2725,25.9063 81.96,26.9844 Q82.6475,28.0469 83.9913,28.0469 Q84.6163,28.0469 85.21,27.7813 Q85.8038,27.5 86.4288,26.9219 L86.4288,29.6406 Z "/><text fill="#000000" font-family="sans-serif" font-size="12" lengthAdjust="spacingAndGlyphs" textLength="103" x="97.46" y="28.1543">ScriptableObject</text><line style="stroke: #A80036; stroke-width: 1.5;" x1="69.46" x2="202.46" y1="40" y2="40"/><line style="stroke: #A80036; stroke-width: 1.5;" x1="69.46" x2="202.46" y1="48" y2="48"/><!--MD5=[85c2ed8dbf494cb60783de624603a7dd]
class Sprite--><rect fill="#FEFECE" filter="url(#f14d6novy26au)" height="48" id="Sprite" style="stroke: #A80036; stroke-width: 1.5;" width="69" x="101.46" y="224"/><ellipse cx="116.46" cy="240" fill="#ADD1B2" rx="11" ry="11" style="stroke: #A80036; stroke-width: 1.0;"/><path d="M119.4288,245.6406 Q118.8506,245.9375 118.21,246.0781 Q117.5694,246.2344 116.8663,246.2344 Q114.3663,246.2344 113.0381,244.5938 Q111.7256,242.9375 111.7256,239.8125 Q111.7256,236.6875 113.0381,235.0313 Q114.3663,233.375 116.8663,233.375 Q117.5694,233.375 118.21,233.5313 Q118.8663,233.6875 119.4288,233.9844 L119.4288,236.7031 Q118.8038,236.125 118.21,235.8594 Q117.6163,235.5781 116.9913,235.5781 Q115.6475,235.5781 114.96,236.6563 Q114.2725,237.7188 114.2725,239.8125 Q114.2725,241.9063 114.96,242.9844 Q115.6475,244.0469 116.9913,244.0469 Q117.6163,244.0469 118.21,243.7813 Q118.8038,243.5 119.4288,242.9219 L119.4288,245.6406 Z "/><text fill="#000000" font-family="sans-serif" font-size="12" lengthAdjust="spacingAndGlyphs" textLength="37" x="130.46" y="244.1543">Sprite</text><line style="stroke: #A80036; stroke-width: 1.5;" x1="102.46" x2="169.46" y1="256" y2="256"/><line style="stroke: #A80036; stroke-width: 1.5;" x1="102.46" x2="169.46" y1="264" y2="264"/><!--MD5=[cfb5ffe0412d688e02bbf61945933f25]
reverse link ScriptableObject to InstrumentSprites--><path d="M135.96,76.02 C135.96,89.58 135.96,104.04 135.96,115.68 " fill="none" id="ScriptableObject&lt;-InstrumentSprites" style="stroke: #A80036; stroke-width: 1.0;"/><polygon fill="none" points="128.96,76,135.96,56,142.96,76,128.96,76" style="stroke: #A80036; stroke-width: 1.0;"/><!--MD5=[02cefd11678a6016edff6ce38ffa74be]
link InstrumentSprites to Sprite--><path d="M103.15,164 C95.65,180.14 94.96,201.82 101.09,218.97 " fill="none" id="InstrumentSprites-&gt;Sprite" style="stroke: #A80036; stroke-width: 1.0;"/><polygon fill="#A80036" points="103,223.68,103.3348,213.8368,101.1258,219.0446,95.9181,216.8356,103,223.68" style="stroke: #A80036; stroke-width: 1.0;"/><text fill="#000000" font-family="sans-serif" font-size="13" lengthAdjust="spacingAndGlyphs" textLength="82" x="11.5239" y="216.6785">squareSprite</text><!--MD5=[02cefd11678a6016edff6ce38ffa74be]
link InstrumentSprites to Sprite--><path d="M125.23,164 C122.8,180 122.56,201.45 124.51,218.53 " fill="none" id="InstrumentSprites-&gt;Sprite-1" style="stroke: #A80036; stroke-width: 1.0;"/><polygon fill="#A80036" points="125.18,223.68,127.9626,214.2324,124.5229,218.7234,120.032,215.2837,125.18,223.68" style="stroke: #A80036; stroke-width: 1.0;"/><text fill="#000000" font-family="sans-serif" font-size="13" lengthAdjust="spacingAndGlyphs" textLength="96" x="134.2524" y="213.007">sawtoothSprite</text><!--MD5=[02cefd11678a6016edff6ce38ffa74be]
link InstrumentSprites to Sprite--><path d="M147.31,164 C149.89,180 150.14,201.45 148.08,218.53 " fill="none" id="InstrumentSprites-&gt;Sprite-2" style="stroke: #A80036; stroke-width: 1.0;"/><polygon fill="#A80036" points="147.36,223.68,152.5555,215.313,148.0451,218.7272,144.6309,214.2168,147.36,223.68" style="stroke: #A80036; stroke-width: 1.0;"/><text fill="#000000" font-family="sans-serif" font-size="13" lengthAdjust="spacingAndGlyphs" textLength="64" x="178.2825" y="223.81">sineSprite</text><!--MD5=[02cefd11678a6016edff6ce38ffa74be]
link InstrumentSprites to Sprite--><path d="M169.4,164 C177.04,180.14 177.74,201.82 171.49,218.97 " fill="none" id="InstrumentSprites-&gt;Sprite-3" style="stroke: #A80036; stroke-width: 1.0;"/><polygon fill="#A80036" points="169.55,223.68,176.6934,216.8998,171.466,219.0617,169.3041,213.8342,169.55,223.68" style="stroke: #A80036; stroke-width: 1.0;"/><text fill="#000000" font-family="sans-serif" font-size="13" lengthAdjust="spacingAndGlyphs" textLength="72" x="96.9626" y="213.007">noiseSprite</text><!--MD5=[d49c05df30785800f7ec8e3880cd5893]
@startuml
class InstrumentSprites {
}
ScriptableObject <|- - InstrumentSprites
InstrumentSprites - -> "squareSprite" Sprite
InstrumentSprites - -> "sawtoothSprite" Sprite
InstrumentSprites - -> "sineSprite" Sprite
InstrumentSprites - -> "noiseSprite" Sprite
@enduml

PlantUML version 1.2020.02(Sun Mar 01 10:22:07 GMT 2020)
(GPL source distribution)
Java Runtime: OpenJDK Runtime Environment
JVM: OpenJDK 64-Bit Server VM
Java Version: 11.0.9+11-Ubuntu-0ubuntu1
Operating System: Linux
Default Encoding: ANSI_X3.4-1968
Language: en
Country: US
--></g></svg>