<?xml version="1.0" encoding="UTF-8" standalone="no"?><svg xmlns="http://www.w3.org/2000/svg" xmlns:xlink="http://www.w3.org/1999/xlink" contentScriptType="application/ecmascript" contentStyleType="text/css" height="283px" preserveAspectRatio="none" style="width:219px;height:283px;" version="1.1" viewBox="0 0 219 283" width="219px" zoomAndPan="magnify"><defs><filter height="300%" id="f1qr091mcvdo53" width="300%" x="-1" y="-1"><feGaussianBlur result="blurOut" stdDeviation="2.0"/><feColorMatrix in="blurOut" result="blurOut2" type="matrix" values="0 0 0 0 0 0 0 0 0 0 0 0 0 0 0 0 0 0 .4 0"/><feOffset dx="4.0" dy="4.0" in="blurOut2" result="blurOut3"/><feBlend in="SourceGraphic" in2="blurOut3" mode="normal"/></filter></defs><g><!--MD5=[18901d98f18d2bb347c12cef24aa7985]
class NoteSprites--><rect fill="#FEFECE" filter="url(#f1qr091mcvdo53)" height="48" id="NoteSprites" style="stroke: #A80036; stroke-width: 1.5;" width="106" x="44.81" y="116"/><ellipse cx="59.81" cy="132" fill="#ADD1B2" rx="11" ry="11" style="stroke: #A80036; stroke-width: 1.0;"/><path d="M62.7788,137.6406 Q62.2006,137.9375 61.56,138.0781 Q60.9194,138.2344 60.2163,138.2344 Q57.7163,138.2344 56.3881,136.5938 Q55.0756,134.9375 55.0756,131.8125 Q55.0756,128.6875 56.3881,127.0313 Q57.7163,125.375 60.2163,125.375 Q60.9194,125.375 61.56,125.5313 Q62.2163,125.6875 62.7788,125.9844 L62.7788,128.7031 Q62.1538,128.125 61.56,127.8594 Q60.9663,127.5781 60.3413,127.5781 Q58.9975,127.5781 58.31,128.6563 Q57.6225,129.7188 57.6225,131.8125 Q57.6225,133.9063 58.31,134.9844 Q58.9975,136.0469 60.3413,136.0469 Q60.9663,136.0469 61.56,135.7813 Q62.1538,135.5 62.7788,134.9219 L62.7788,137.6406 Z "/><text fill="#000000" font-family="sans-serif" font-size="12" lengthAdjust="spacingAndGlyphs" textLength="74" x="73.81" y="136.1543">NoteSprites</text><line style="stroke: #A80036; stroke-width: 1.5;" x1="45.81" x2="149.81" y1="148" y2="148"/><line style="stroke: #A80036; stroke-width: 1.5;" x1="45.81" x2="149.81" y1="156" y2="156"/><!--MD5=[44895057fba17b10f3053a7baa21df04]
class ScriptableObject--><rect fill="#FEFECE" filter="url(#f1qr091mcvdo53)" height="48" id="ScriptableObject" style="stroke: #A80036; stroke-width: 1.5;" width="135" x="30.31" y="8"/><ellipse cx="45.31" cy="24" fill="#ADD1B2" rx="11" ry="11" style="stroke: #A80036; stroke-width: 1.0;"/><path d="M48.2788,29.6406 Q47.7006,29.9375 47.06,30.0781 Q46.4194,30.2344 45.7163,30.2344 Q43.2163,30.2344 41.8881,28.5938 Q40.5756,26.9375 40.5756,23.8125 Q40.5756,20.6875 41.8881,19.0313 Q43.2163,17.375 45.7163,17.375 Q46.4194,17.375 47.06,17.5313 Q47.7163,17.6875 48.2788,17.9844 L48.2788,20.7031 Q47.6538,20.125 47.06,19.8594 Q46.4663,19.5781 45.8413,19.5781 Q44.4975,19.5781 43.81,20.6563 Q43.1225,21.7188 43.1225,23.8125 Q43.1225,25.9063 43.81,26.9844 Q44.4975,28.0469 45.8413,28.0469 Q46.4663,28.0469 47.06,27.7813 Q47.6538,27.5 48.2788,26.9219 L48.2788,29.6406 Z "/><text fill="#000000" font-family="sans-serif" font-size="12" lengthAdjust="spacingAndGlyphs" textLength="103" x="59.31" y="28.1543">ScriptableObject</text><line style="stroke: #A80036; stroke-width: 1.5;" x1="31.31" x2="164.31" y1="40" y2="40"/><line style="stroke: #A80036; stroke-width: 1.5;" x1="31.31" x2="164.31" y1="48" y2="48"/><!--MD5=[85c2ed8dbf494cb60783de624603a7dd]
class Sprite--><rect fill="#FEFECE" filter="url(#f1qr091mcvdo53)" height="48" id="Sprite" style="stroke: #A80036; stroke-width: 1.5;" width="69" x="63.31" y="224"/><ellipse cx="78.31" cy="240" fill="#ADD1B2" rx="11" ry="11" style="stroke: #A80036; stroke-width: 1.0;"/><path d="M81.2788,245.6406 Q80.7006,245.9375 80.06,246.0781 Q79.4194,246.2344 78.7163,246.2344 Q76.2163,246.2344 74.8881,244.5938 Q73.5756,242.9375 73.5756,239.8125 Q73.5756,236.6875 74.8881,235.0313 Q76.2163,233.375 78.7163,233.375 Q79.4194,233.375 80.06,233.5313 Q80.7163,233.6875 81.2788,233.9844 L81.2788,236.7031 Q80.6538,236.125 80.06,235.8594 Q79.4663,235.5781 78.8413,235.5781 Q77.4975,235.5781 76.81,236.6563 Q76.1225,237.7188 76.1225,239.8125 Q76.1225,241.9063 76.81,242.9844 Q77.4975,244.0469 78.8413,244.0469 Q79.4663,244.0469 80.06,243.7813 Q80.6538,243.5 81.2788,242.9219 L81.2788,245.6406 Z "/><text fill="#000000" font-family="sans-serif" font-size="12" lengthAdjust="spacingAndGlyphs" textLength="37" x="92.31" y="244.1543">Sprite</text><line style="stroke: #A80036; stroke-width: 1.5;" x1="64.31" x2="131.31" y1="256" y2="256"/><line style="stroke: #A80036; stroke-width: 1.5;" x1="64.31" x2="131.31" y1="264" y2="264"/><!--MD5=[1a815e461ea577908b99a088b1cc2321]
reverse link ScriptableObject to NoteSprites--><path d="M97.81,76.02 C97.81,89.58 97.81,104.04 97.81,115.68 " fill="none" id="ScriptableObject&lt;-NoteSprites" style="stroke: #A80036; stroke-width: 1.0;"/><polygon fill="none" points="90.81,76,97.81,56,104.81,76,90.81,76" style="stroke: #A80036; stroke-width: 1.0;"/><!--MD5=[63682003d4f9780fe241ea2a5971196d]
link NoteSprites to Sprite--><path d="M44.78,149.67 C-10.58,171.17 -6.2,226.31 57.92,242.48 " fill="none" id="NoteSprites-&gt;Sprite" style="stroke: #A80036; stroke-width: 1.0;"/><polygon fill="#A80036" points="63.05,243.66,55.1685,237.7539,58.1759,242.5451,53.3847,245.5525,63.05,243.66" style="stroke: #A80036; stroke-width: 1.0;"/><text fill="#000000" font-family="sans-serif" font-size="13" lengthAdjust="spacingAndGlyphs" textLength="9" x="46.3207" y="256.3621">A</text><!--MD5=[63682003d4f9780fe241ea2a5971196d]
link NoteSprites to Sprite--><path d="M44.6,161.94 C24.8,184.83 29.41,220.49 58.42,237.44 " fill="none" id="NoteSprites-&gt;Sprite-1" style="stroke: #A80036; stroke-width: 1.0;"/><polygon fill="#A80036" points="62.88,239.8,56.7952,232.0557,58.4604,237.4619,53.0542,239.1271,62.88,239.8" style="stroke: #A80036; stroke-width: 1.0;"/><text fill="#000000" font-family="sans-serif" font-size="13" lengthAdjust="spacingAndGlyphs" textLength="9" x="46.3637" y="233.8867">B</text><!--MD5=[63682003d4f9780fe241ea2a5971196d]
link NoteSprites to Sprite--><path d="M65,164 C57.5,180.14 56.81,201.82 62.94,218.97 " fill="none" id="NoteSprites-&gt;Sprite-2" style="stroke: #A80036; stroke-width: 1.0;"/><polygon fill="#A80036" points="64.85,223.68,65.1848,213.8368,62.9758,219.0446,57.7681,216.8356,64.85,223.68" style="stroke: #A80036; stroke-width: 1.0;"/><text fill="#000000" font-family="sans-serif" font-size="13" lengthAdjust="spacingAndGlyphs" textLength="9" x="46.7191" y="213.007">C</text><!--MD5=[63682003d4f9780fe241ea2a5971196d]
link NoteSprites to Sprite--><path d="M87.08,164 C84.65,180 84.41,201.45 86.36,218.53 " fill="none" id="NoteSprites-&gt;Sprite-3" style="stroke: #A80036; stroke-width: 1.0;"/><polygon fill="#A80036" points="87.03,223.68,89.8126,214.2324,86.3729,218.7234,81.882,215.2837,87.03,223.68" style="stroke: #A80036; stroke-width: 1.0;"/><text fill="#000000" font-family="sans-serif" font-size="13" lengthAdjust="spacingAndGlyphs" textLength="10" x="73.1836" y="213.007">D</text><!--MD5=[63682003d4f9780fe241ea2a5971196d]
link NoteSprites to Sprite--><path d="M109.16,164 C111.74,180 111.99,201.45 109.93,218.53 " fill="none" id="NoteSprites-&gt;Sprite-4" style="stroke: #A80036; stroke-width: 1.0;"/><polygon fill="#A80036" points="109.21,223.68,114.4055,215.313,109.8951,218.7272,106.4809,214.2168,109.21,223.68" style="stroke: #A80036; stroke-width: 1.0;"/><text fill="#000000" font-family="sans-serif" font-size="13" lengthAdjust="spacingAndGlyphs" textLength="8" x="103.0137" y="213.007">E</text><!--MD5=[63682003d4f9780fe241ea2a5971196d]
link NoteSprites to Sprite--><path d="M131.25,164 C138.89,180.14 139.59,201.82 133.34,218.97 " fill="none" id="NoteSprites-&gt;Sprite-5" style="stroke: #A80036; stroke-width: 1.0;"/><polygon fill="#A80036" points="131.4,223.68,138.5434,216.8998,133.316,219.0617,131.1541,213.8342,131.4,223.68" style="stroke: #A80036; stroke-width: 1.0;"/><text fill="#000000" font-family="sans-serif" font-size="13" lengthAdjust="spacingAndGlyphs" textLength="7" x="131.7344" y="213.007">F</text><!--MD5=[63682003d4f9780fe241ea2a5971196d]
link NoteSprites to Sprite--><path d="M151.17,161.44 C171.83,184.43 167.15,220.78 137.15,237.72 " fill="none" id="NoteSprites-&gt;Sprite-6" style="stroke: #A80036; stroke-width: 1.0;"/><polygon fill="#A80036" points="132.53,240.08,142.3643,239.5446,136.9819,237.8039,138.7226,232.4216,132.53,240.08" style="stroke: #A80036; stroke-width: 1.0;"/><text fill="#000000" font-family="sans-serif" font-size="13" lengthAdjust="spacingAndGlyphs" textLength="10" x="140.3499" y="234.1242">G</text><!--MD5=[63682003d4f9780fe241ea2a5971196d]
link NoteSprites to Sprite--><path d="M151.27,149.67 C207.2,171.22 202.64,226.56 137.59,242.59 " fill="none" id="NoteSprites-&gt;Sprite-7" style="stroke: #A80036; stroke-width: 1.0;"/><polygon fill="#A80036" points="132.38,243.76,142.04,245.6794,137.2572,242.6587,140.2779,237.8759,132.38,243.76" style="stroke: #A80036; stroke-width: 1.0;"/><text fill="#000000" font-family="sans-serif" font-size="13" lengthAdjust="spacingAndGlyphs" textLength="32" x="140.4396" y="256.357">none</text><!--MD5=[eaf3a2ed876723fcb7eb938f3603a5fd]
@startuml
class NoteSprites {
}
ScriptableObject <|- - NoteSprites
NoteSprites - -> "A" Sprite
NoteSprites - -> "B" Sprite
NoteSprites - -> "C" Sprite
NoteSprites - -> "D" Sprite
NoteSprites - -> "E" Sprite
NoteSprites - -> "F" Sprite
NoteSprites - -> "G" Sprite
NoteSprites - -> "none" Sprite
@enduml

PlantUML version 1.2020.02(Sun Mar 01 10:22:07 GMT 2020)
(GPL source distribution)
Java Runtime: OpenJDK Runtime Environment
JVM: OpenJDK 64-Bit Server VM
Java Version: 11.0.9+11-Ubuntu-0ubuntu1
Operating System: Linux
Default Encoding: ANSI_X3.4-1968
Language: en
Country: US
--></g></svg>