<?xml version="1.0" encoding="UTF-8" standalone="no"?><svg xmlns="http://www.w3.org/2000/svg" xmlns:xlink="http://www.w3.org/1999/xlink" contentScriptType="application/ecmascript" contentStyleType="text/css" height="265px" preserveAspectRatio="none" style="width:1042px;height:265px;" version="1.1" viewBox="0 0 1042 265" width="1042px" zoomAndPan="magnify"><defs><filter height="300%" id="fdmsdhbbijt1t" width="300%" x="-1" y="-1"><feGaussianBlur result="blurOut" stdDeviation="2.0"/><feColorMatrix in="blurOut" result="blurOut2" type="matrix" values="0 0 0 0 0 0 0 0 0 0 0 0 0 0 0 0 0 0 .4 0"/><feOffset dx="4.0" dy="4.0" in="blurOut2" result="blurOut3"/><feBlend in="SourceGraphic" in2="blurOut3" mode="normal"/></filter></defs><g><!--MD5=[a340c818e1a574c4e337041b99b893a1]
class Sequencer--><rect fill="#FEFECE" filter="url(#fdmsdhbbijt1t)" height="112.0234" id="Sequencer" style="stroke: #A80036; stroke-width: 1.5;" width="491" x="540.5" y="21"/><ellipse cx="747.75" cy="37" fill="#ADD1B2" rx="11" ry="11" style="stroke: #A80036; stroke-width: 1.0;"/><path d="M750.7188,42.6406 Q750.1406,42.9375 749.5,43.0781 Q748.8594,43.2344 748.1563,43.2344 Q745.6563,43.2344 744.3281,41.5938 Q743.0156,39.9375 743.0156,36.8125 Q743.0156,33.6875 744.3281,32.0313 Q745.6563,30.375 748.1563,30.375 Q748.8594,30.375 749.5,30.5313 Q750.1563,30.6875 750.7188,30.9844 L750.7188,33.7031 Q750.0938,33.125 749.5,32.8594 Q748.9063,32.5781 748.2813,32.5781 Q746.9375,32.5781 746.25,33.6563 Q745.5625,34.7188 745.5625,36.8125 Q745.5625,38.9063 746.25,39.9844 Q746.9375,41.0469 748.2813,41.0469 Q748.9063,41.0469 749.5,40.7813 Q750.0938,40.5 750.7188,39.9219 L750.7188,42.6406 Z "/><text fill="#000000" font-family="sans-serif" font-size="12" lengthAdjust="spacingAndGlyphs" textLength="68" x="768.25" y="41.1543">Sequencer</text><line style="stroke: #A80036; stroke-width: 1.5;" x1="541.5" x2="1030.5" y1="53" y2="53"/><ellipse cx="551.5" cy="64" fill="none" rx="3" ry="3" style="stroke: #038048; stroke-width: 1.0;"/><text fill="#000000" font-family="sans-serif" font-size="11" lengthAdjust="spacingAndGlyphs" textLength="87" x="560.5" y="67.2104">islooping : bool</text><ellipse cx="551.5" cy="76.8047" fill="none" rx="3" ry="3" style="stroke: #038048; stroke-width: 1.0;"/><text fill="#000000" font-family="sans-serif" font-size="11" lengthAdjust="spacingAndGlyphs" textLength="183" x="560.5" y="80.0151">NoteDuration : float «get» «set»</text><line style="stroke: #A80036; stroke-width: 1.5;" x1="541.5" x2="1030.5" y1="86.6094" y2="86.6094"/><ellipse cx="551.5" cy="97.6094" fill="#84BE84" rx="3" ry="3" style="stroke: #038048; stroke-width: 1.0;"/><text fill="#000000" font-family="sans-serif" font-size="11" lengthAdjust="spacingAndGlyphs" textLength="258" x="560.5" y="100.8198">OnStart(_manager:ApplicationManager) : void</text><ellipse cx="551.5" cy="110.4141" fill="#84BE84" rx="3" ry="3" style="stroke: #038048; stroke-width: 1.0;"/><text fill="#000000" font-family="sans-serif" font-size="11" lengthAdjust="spacingAndGlyphs" textLength="107" x="560.5" y="113.6245">UpdateText() : void</text><ellipse cx="551.5" cy="123.2188" fill="#84BE84" rx="3" ry="3" style="stroke: #038048; stroke-width: 1.0;"/><text fill="#000000" font-family="sans-serif" font-size="11" lengthAdjust="spacingAndGlyphs" textLength="465" x="560.5" y="126.4292">PlayTheSequence(_sequence:NoteSequence, _source:AudioSource) : IEnumerator</text><!--MD5=[a659b5de59fa776591871637ddeded8b]
class NoteSequence--><rect fill="#FEFECE" filter="url(#fdmsdhbbijt1t)" height="137.6328" id="NoteSequence" style="stroke: #A80036; stroke-width: 1.5;" width="330" x="6" y="8"/><ellipse cx="120.25" cy="24" fill="#ADD1B2" rx="11" ry="11" style="stroke: #A80036; stroke-width: 1.0;"/><path d="M123.2188,29.6406 Q122.6406,29.9375 122,30.0781 Q121.3594,30.2344 120.6563,30.2344 Q118.1563,30.2344 116.8281,28.5938 Q115.5156,26.9375 115.5156,23.8125 Q115.5156,20.6875 116.8281,19.0313 Q118.1563,17.375 120.6563,17.375 Q121.3594,17.375 122,17.5313 Q122.6563,17.6875 123.2188,17.9844 L123.2188,20.7031 Q122.5938,20.125 122,19.8594 Q121.4063,19.5781 120.7813,19.5781 Q119.4375,19.5781 118.75,20.6563 Q118.0625,21.7188 118.0625,23.8125 Q118.0625,25.9063 118.75,26.9844 Q119.4375,28.0469 120.7813,28.0469 Q121.4063,28.0469 122,27.7813 Q122.5938,27.5 123.2188,26.9219 L123.2188,29.6406 Z "/><text fill="#000000" font-family="sans-serif" font-size="12" lengthAdjust="spacingAndGlyphs" textLength="93" x="140.75" y="28.1543">NoteSequence</text><line style="stroke: #A80036; stroke-width: 1.5;" x1="7" x2="335" y1="40" y2="40"/><line style="stroke: #A80036; stroke-width: 1.5;" x1="7" x2="335" y1="48" y2="48"/><ellipse cx="17" cy="59" fill="#84BE84" rx="3" ry="3" style="stroke: #038048; stroke-width: 1.0;"/><text fill="#000000" font-family="sans-serif" font-size="11" lengthAdjust="spacingAndGlyphs" textLength="139" x="26" y="62.2104">UpdateSequence() : void</text><ellipse cx="17" cy="71.8047" fill="#84BE84" rx="3" ry="3" style="stroke: #038048; stroke-width: 1.0;"/><text fill="#000000" font-family="sans-serif" font-size="11" lengthAdjust="spacingAndGlyphs" textLength="239" x="26" y="75.0151">UpdateNoteDuration(_duration:float) : void</text><ellipse cx="17" cy="84.6094" fill="#84BE84" rx="3" ry="3" style="stroke: #038048; stroke-width: 1.0;"/><text fill="#000000" font-family="sans-serif" font-size="11" lengthAdjust="spacingAndGlyphs" textLength="250" x="26" y="87.8198">SetSprites(sprites:InstrumentSprites) : void</text><ellipse cx="17" cy="97.4141" fill="#84BE84" rx="3" ry="3" style="stroke: #038048; stroke-width: 1.0;"/><text fill="#000000" font-family="sans-serif" font-size="11" lengthAdjust="spacingAndGlyphs" textLength="148" x="26" y="100.6245">ChangeInstrument() : void</text><ellipse cx="17" cy="110.2188" fill="#84BE84" rx="3" ry="3" style="stroke: #038048; stroke-width: 1.0;"/><text fill="#000000" font-family="sans-serif" font-size="11" lengthAdjust="spacingAndGlyphs" textLength="304" x="26" y="113.4292">ApplySequenceToNode(_notes:List&lt;NoteData&gt;) : void</text><ellipse cx="17" cy="123.0234" fill="#84BE84" rx="3" ry="3" style="stroke: #038048; stroke-width: 1.0;"/><text fill="#000000" font-family="sans-serif" font-size="11" lengthAdjust="spacingAndGlyphs" textLength="148" x="26" y="126.2339">GetData() : SequenceData</text><ellipse cx="17" cy="135.8281" fill="#84BE84" rx="3" ry="3" style="stroke: #038048; stroke-width: 1.0;"/><text fill="#000000" font-family="sans-serif" font-size="11" lengthAdjust="spacingAndGlyphs" textLength="210" x="26" y="139.0386">ApplyData(data:SequenceData) : void</text><!--MD5=[42186e82e641e6c85e509a5190208133]
class SequenceData--><rect fill="#FEFECE" filter="url(#fdmsdhbbijt1t)" height="48" id="SequenceData" style="stroke: #A80036; stroke-width: 1.5;" width="125" x="371.5" y="53"/><ellipse cx="386.5" cy="69" fill="#ADD1B2" rx="11" ry="11" style="stroke: #A80036; stroke-width: 1.0;"/><path d="M389.4688,74.6406 Q388.8906,74.9375 388.25,75.0781 Q387.6094,75.2344 386.9063,75.2344 Q384.4063,75.2344 383.0781,73.5938 Q381.7656,71.9375 381.7656,68.8125 Q381.7656,65.6875 383.0781,64.0313 Q384.4063,62.375 386.9063,62.375 Q387.6094,62.375 388.25,62.5313 Q388.9063,62.6875 389.4688,62.9844 L389.4688,65.7031 Q388.8438,65.125 388.25,64.8594 Q387.6563,64.5781 387.0313,64.5781 Q385.6875,64.5781 385,65.6563 Q384.3125,66.7188 384.3125,68.8125 Q384.3125,70.9063 385,71.9844 Q385.6875,73.0469 387.0313,73.0469 Q387.6563,73.0469 388.25,72.7813 Q388.8438,72.5 389.4688,71.9219 L389.4688,74.6406 Z "/><text fill="#000000" font-family="sans-serif" font-size="12" lengthAdjust="spacingAndGlyphs" textLength="93" x="400.5" y="73.1543">SequenceData</text><line style="stroke: #A80036; stroke-width: 1.5;" x1="372.5" x2="495.5" y1="85" y2="85"/><line style="stroke: #A80036; stroke-width: 1.5;" x1="372.5" x2="495.5" y1="93" y2="93"/><!--MD5=[e644022de7dea015dd09463c37421447]
class List`1--><rect fill="#FEFECE" filter="url(#fdmsdhbbijt1t)" height="48" id="List`1" style="stroke: #A80036; stroke-width: 1.5;" width="78" x="180" y="206"/><ellipse cx="195" cy="222" fill="#ADD1B2" rx="11" ry="11" style="stroke: #A80036; stroke-width: 1.0;"/><path d="M197.9688,227.6406 Q197.3906,227.9375 196.75,228.0781 Q196.1094,228.2344 195.4063,228.2344 Q192.9063,228.2344 191.5781,226.5938 Q190.2656,224.9375 190.2656,221.8125 Q190.2656,218.6875 191.5781,217.0313 Q192.9063,215.375 195.4063,215.375 Q196.1094,215.375 196.75,215.5313 Q197.4063,215.6875 197.9688,215.9844 L197.9688,218.7031 Q197.3438,218.125 196.75,217.8594 Q196.1563,217.5781 195.5313,217.5781 Q194.1875,217.5781 193.5,218.6563 Q192.8125,219.7188 192.8125,221.8125 Q192.8125,223.9063 193.5,224.9844 Q194.1875,226.0469 195.5313,226.0469 Q196.1563,226.0469 196.75,225.7813 Q197.3438,225.5 197.9688,224.9219 L197.9688,227.6406 Z "/><text fill="#000000" font-family="sans-serif" font-size="12" lengthAdjust="spacingAndGlyphs" textLength="35" x="209" y="226.1543">List`1</text><rect fill="#FFFFFF" height="15.9688" style="stroke: #000000; stroke-width: 1.0; stroke-dasharray: 2.0,2.0;" width="9" x="252" y="203"/><text fill="#000000" font-family="sans-serif" font-size="12" font-style="italic" lengthAdjust="spacingAndGlyphs" textLength="7" x="253" y="215.1387">T</text><line style="stroke: #A80036; stroke-width: 1.5;" x1="181" x2="257" y1="238" y2="238"/><line style="stroke: #A80036; stroke-width: 1.5;" x1="181" x2="257" y1="246" y2="246"/><!--MD5=[aab07c8285b720c4869802ba7d0bd128]
class ApplicationManager--><rect fill="#FEFECE" filter="url(#fdmsdhbbijt1t)" height="48" id="ApplicationManager" style="stroke: #A80036; stroke-width: 1.5;" width="156" x="543" y="206"/><ellipse cx="558" cy="222" fill="#ADD1B2" rx="11" ry="11" style="stroke: #A80036; stroke-width: 1.0;"/><path d="M560.9688,227.6406 Q560.3906,227.9375 559.75,228.0781 Q559.1094,228.2344 558.4063,228.2344 Q555.9063,228.2344 554.5781,226.5938 Q553.2656,224.9375 553.2656,221.8125 Q553.2656,218.6875 554.5781,217.0313 Q555.9063,215.375 558.4063,215.375 Q559.1094,215.375 559.75,215.5313 Q560.4063,215.6875 560.9688,215.9844 L560.9688,218.7031 Q560.3438,218.125 559.75,217.8594 Q559.1563,217.5781 558.5313,217.5781 Q557.1875,217.5781 556.5,218.6563 Q555.8125,219.7188 555.8125,221.8125 Q555.8125,223.9063 556.5,224.9844 Q557.1875,226.0469 558.5313,226.0469 Q559.1563,226.0469 559.75,225.7813 Q560.3438,225.5 560.9688,224.9219 L560.9688,227.6406 Z "/><text fill="#000000" font-family="sans-serif" font-size="12" lengthAdjust="spacingAndGlyphs" textLength="124" x="572" y="226.1543">ApplicationManager</text><line style="stroke: #A80036; stroke-width: 1.5;" x1="544" x2="698" y1="238" y2="238"/><line style="stroke: #A80036; stroke-width: 1.5;" x1="544" x2="698" y1="246" y2="246"/><!--MD5=[904907aec70c3817983bd27a243dd750]
class TextMeshProUGUI--><rect fill="#FEFECE" filter="url(#fdmsdhbbijt1t)" height="48" id="TextMeshProUGUI" style="stroke: #A80036; stroke-width: 1.5;" width="142" x="734" y="206"/><ellipse cx="749" cy="222" fill="#ADD1B2" rx="11" ry="11" style="stroke: #A80036; stroke-width: 1.0;"/><path d="M751.9688,227.6406 Q751.3906,227.9375 750.75,228.0781 Q750.1094,228.2344 749.4063,228.2344 Q746.9063,228.2344 745.5781,226.5938 Q744.2656,224.9375 744.2656,221.8125 Q744.2656,218.6875 745.5781,217.0313 Q746.9063,215.375 749.4063,215.375 Q750.1094,215.375 750.75,215.5313 Q751.4063,215.6875 751.9688,215.9844 L751.9688,218.7031 Q751.3438,218.125 750.75,217.8594 Q750.1563,217.5781 749.5313,217.5781 Q748.1875,217.5781 747.5,218.6563 Q746.8125,219.7188 746.8125,221.8125 Q746.8125,223.9063 747.5,224.9844 Q748.1875,226.0469 749.5313,226.0469 Q750.1563,226.0469 750.75,225.7813 Q751.3438,225.5 751.9688,224.9219 L751.9688,227.6406 Z "/><text fill="#000000" font-family="sans-serif" font-size="12" lengthAdjust="spacingAndGlyphs" textLength="110" x="763" y="226.1543">TextMeshProUGUI</text><line style="stroke: #A80036; stroke-width: 1.5;" x1="735" x2="875" y1="238" y2="238"/><line style="stroke: #A80036; stroke-width: 1.5;" x1="735" x2="875" y1="246" y2="246"/><!--MD5=[c979ec6ca0402e89d21906dea279d1c8]
class InstrumentType--><rect fill="#FEFECE" filter="url(#fdmsdhbbijt1t)" height="48" id="InstrumentType" style="stroke: #A80036; stroke-width: 1.5;" width="129" x="350.5" y="206"/><ellipse cx="365.5" cy="222" fill="#ADD1B2" rx="11" ry="11" style="stroke: #A80036; stroke-width: 1.0;"/><path d="M368.4688,227.6406 Q367.8906,227.9375 367.25,228.0781 Q366.6094,228.2344 365.9063,228.2344 Q363.4063,228.2344 362.0781,226.5938 Q360.7656,224.9375 360.7656,221.8125 Q360.7656,218.6875 362.0781,217.0313 Q363.4063,215.375 365.9063,215.375 Q366.6094,215.375 367.25,215.5313 Q367.9063,215.6875 368.4688,215.9844 L368.4688,218.7031 Q367.8438,218.125 367.25,217.8594 Q366.6563,217.5781 366.0313,217.5781 Q364.6875,217.5781 364,218.6563 Q363.3125,219.7188 363.3125,221.8125 Q363.3125,223.9063 364,224.9844 Q364.6875,226.0469 366.0313,226.0469 Q366.6563,226.0469 367.25,225.7813 Q367.8438,225.5 368.4688,224.9219 L368.4688,227.6406 Z "/><text fill="#000000" font-family="sans-serif" font-size="12" lengthAdjust="spacingAndGlyphs" textLength="97" x="379.5" y="226.1543">InstrumentType</text><line style="stroke: #A80036; stroke-width: 1.5;" x1="351.5" x2="478.5" y1="238" y2="238"/><line style="stroke: #A80036; stroke-width: 1.5;" x1="351.5" x2="478.5" y1="246" y2="246"/><!--MD5=[8835b38639b6b41f9ed989e5e26db69d]
link Sequencer to ApplicationManager--><path d="M725.5,133.37 C699.69,156.98 670.8,183.43 649.94,202.52 " fill="none" id="Sequencer-&gt;ApplicationManager" style="stroke: #A80036; stroke-width: 1.0;"/><polygon fill="#A80036" points="646.14,205.99,655.4806,202.8669,649.8293,202.6153,650.081,196.964,646.14,205.99" style="stroke: #A80036; stroke-width: 1.0;"/><text fill="#000000" font-family="sans-serif" font-size="13" lengthAdjust="spacingAndGlyphs" textLength="58" x="587.1509" y="194.9995">manager</text><!--MD5=[db60c89bd91ec69da215144fb840b199]
link Sequencer to TextMeshProUGUI--><path d="M792.97,133.37 C795.85,156.3 799.07,181.9 801.46,200.83 " fill="none" id="Sequencer-&gt;TextMeshProUGUI" style="stroke: #A80036; stroke-width: 1.0;"/><polygon fill="#A80036" points="802.1,205.99,804.9395,196.5593,801.4728,201.0295,797.0027,197.5628,802.1,205.99" style="stroke: #A80036; stroke-width: 1.0;"/><text fill="#000000" font-family="sans-serif" font-size="13" lengthAdjust="spacingAndGlyphs" textLength="111" x="702.3007" y="194.9267">noteDurationText</text><!--MD5=[9ad14ad5c2f14fec54eecf68cf7bd7c2]
link NoteSequence to List`1--><path d="M196.3901,157.8646 C196.3901,157.8646 204.39,183.04 207.72,193.52 " fill="none" id="NoteSequence-List`1" style="stroke: #A80036; stroke-width: 1.0;"/><polygon fill="#A80036" points="211.66,205.92,212.7517,196.1318,210.1483,201.154,205.1261,198.5506,211.66,205.92" style="stroke: #A80036; stroke-width: 1.0;"/><line style="stroke: #A80036; stroke-width: 1.0;" x1="210.1483" x2="207.725" y1="201.154" y2="193.535"/><polygon fill="#FFFFFF" points="192.75,146.43,190.7585,153.3607,196.3901,157.8646,198.3816,150.9339,192.75,146.43" style="stroke: #A80036; stroke-width: 1.0;"/><text fill="#000000" font-family="sans-serif" font-size="13" lengthAdjust="spacingAndGlyphs" textLength="120" x="74.4041" y="194.9115">notes&lt;NoteData&gt;</text><!--MD5=[ada439c05acdf1778df570e17b3aa682]
link NoteSequence to InstrumentType--><path d="M281.22,146.21 C313.93,166.45 347.79,187.4 373.25,203.16 " fill="none" id="NoteSequence-&gt;InstrumentType" style="stroke: #A80036; stroke-width: 1.0;"/><polygon fill="#A80036" points="377.59,205.85,372.0459,197.7098,373.3396,203.2167,367.8327,204.5105,377.59,205.85" style="stroke: #A80036; stroke-width: 1.0;"/><text fill="#000000" font-family="sans-serif" font-size="13" lengthAdjust="spacingAndGlyphs" textLength="132" x="263.6352" y="194.9855">sequenceInstrument</text><!--MD5=[0d289be9c2cdd14f31af7f3451ae6327]
link SequenceData to List`1--><path d="M408.5,101.03 C392.92,114.69 372.34,132.01 353,146 C323.87,167.08 289.34,188.39 262.63,204.13 " fill="none" id="SequenceData-&gt;List`1" style="stroke: #A80036; stroke-width: 1.0;"/><polygon fill="#A80036" points="258.08,206.81,267.8673,205.7101,262.3937,204.2818,263.8221,198.8082,258.08,206.81" style="stroke: #A80036; stroke-width: 1.0;"/><text fill="#000000" font-family="sans-serif" font-size="13" lengthAdjust="spacingAndGlyphs" textLength="120" x="222.576" y="209.4084">notes&lt;NoteData&gt;</text><!--MD5=[a034cf8cd04bd3fc47efe3774c7d137b]
link SequenceData to InstrumentType--><path d="M431.07,101.26 C427.7,128.05 422.17,172.06 418.55,200.78 " fill="none" id="SequenceData-&gt;InstrumentType" style="stroke: #A80036; stroke-width: 1.0;"/><polygon fill="#A80036" points="417.9,205.96,423.0004,197.5347,418.529,200.9997,415.0639,196.5283,417.9,205.96" style="stroke: #A80036; stroke-width: 1.0;"/><text fill="#000000" font-family="sans-serif" font-size="13" lengthAdjust="spacingAndGlyphs" textLength="132" x="410.1481" y="194.8926">sequenceInstrument</text><!--MD5=[1d85c1d3f55d840c6b63528e3432222a]
@startuml
class Sequencer {
    + islooping : bool
    + NoteDuration : float <<get>> <<set>>
    + OnStart(_manager:ApplicationManager) : void
    + UpdateText() : void
    + PlayTheSequence(_sequence:NoteSequence, _source:AudioSource) : IEnumerator
}
class NoteSequence {
    + UpdateSequence() : void
    + UpdateNoteDuration(_duration:float) : void
    + SetSprites(sprites:InstrumentSprites) : void
    + ChangeInstrument() : void
    + ApplySequenceToNode(_notes:List<NoteData>) : void
    + GetData() : SequenceData
    + ApplyData(data:SequenceData) : void
}
class SequenceData {
}
class "List`1"<T> {
}
Sequencer - -> "manager" ApplicationManager
Sequencer - -> "noteDurationText" TextMeshProUGUI
NoteSequence o-> "notes<NoteData>" "List`1"
NoteSequence - -> "sequenceInstrument" InstrumentType
SequenceData - -> "notes<NoteData>" "List`1"
SequenceData - -> "sequenceInstrument" InstrumentType
@enduml

PlantUML version 1.2020.02(Sun Mar 01 10:22:07 GMT 2020)
(GPL source distribution)
Java Runtime: OpenJDK Runtime Environment
JVM: OpenJDK 64-Bit Server VM
Java Version: 11.0.9+11-Ubuntu-0ubuntu1
Operating System: Linux
Default Encoding: ANSI_X3.4-1968
Language: en
Country: US
--></g></svg>