<?xml version="1.0" encoding="UTF-8" standalone="no"?><svg xmlns="http://www.w3.org/2000/svg" xmlns:xlink="http://www.w3.org/1999/xlink" contentScriptType="application/ecmascript" contentStyleType="text/css" height="737px" preserveAspectRatio="none" style="width:733px;height:737px;" version="1.1" viewBox="0 0 733 737" width="733px" zoomAndPan="magnify"><defs><filter height="300%" id="f1eq2g5ikc1j3q" width="300%" x="-1" y="-1"><feGaussianBlur result="blurOut" stdDeviation="2.0"/><feColorMatrix in="blurOut" result="blurOut2" type="matrix" values="0 0 0 0 0 0 0 0 0 0 0 0 0 0 0 0 0 0 .4 0"/><feOffset dx="4.0" dy="4.0" in="blurOut2" result="blurOut3"/><feBlend in="SourceGraphic" in2="blurOut3" mode="normal"/></filter></defs><g><!--MD5=[84af428a2110b44730c1f6852448a977]
class SequenceNode--><rect fill="#FEFECE" filter="url(#f1eq2g5ikc1j3q)" height="137.6328" id="SequenceNode" style="stroke: #A80036; stroke-width: 1.5;" width="332" x="206" y="116"/><ellipse cx="319.75" cy="132" fill="#ADD1B2" rx="11" ry="11" style="stroke: #A80036; stroke-width: 1.0;"/><path d="M322.7188,137.6406 Q322.1406,137.9375 321.5,138.0781 Q320.8594,138.2344 320.1563,138.2344 Q317.6563,138.2344 316.3281,136.5938 Q315.0156,134.9375 315.0156,131.8125 Q315.0156,128.6875 316.3281,127.0313 Q317.6563,125.375 320.1563,125.375 Q320.8594,125.375 321.5,125.5313 Q322.1563,125.6875 322.7188,125.9844 L322.7188,128.7031 Q322.0938,128.125 321.5,127.8594 Q320.9063,127.5781 320.2813,127.5781 Q318.9375,127.5781 318.25,128.6563 Q317.5625,129.7188 317.5625,131.8125 Q317.5625,133.9063 318.25,134.9844 Q318.9375,136.0469 320.2813,136.0469 Q320.9063,136.0469 321.5,135.7813 Q322.0938,135.5 322.7188,134.9219 L322.7188,137.6406 Z "/><text fill="#000000" font-family="sans-serif" font-size="12" lengthAdjust="spacingAndGlyphs" textLength="96" x="340.25" y="136.1543">SequenceNode</text><line style="stroke: #A80036; stroke-width: 1.5;" x1="207" x2="537" y1="148" y2="148"/><line style="stroke: #A80036; stroke-width: 1.5;" x1="207" x2="537" y1="156" y2="156"/><text fill="#000000" font-family="sans-serif" font-size="11" lengthAdjust="spacingAndGlyphs" textLength="71" x="226" y="170.2104">Start() : void</text><ellipse cx="217" cy="179.8047" fill="#84BE84" rx="3" ry="3" style="stroke: #038048; stroke-width: 1.0;"/><text fill="#000000" font-family="sans-serif" font-size="11" lengthAdjust="spacingAndGlyphs" textLength="106" x="226" y="183.0151">ClickButton() : void</text><ellipse cx="217" cy="192.6094" fill="#84BE84" rx="3" ry="3" style="stroke: #038048; stroke-width: 1.0;"/><text fill="#000000" font-family="sans-serif" font-size="11" lengthAdjust="spacingAndGlyphs" textLength="96" x="226" y="195.8198">ClickBack() : void</text><ellipse cx="217" cy="205.4141" fill="#84BE84" rx="3" ry="3" style="stroke: #038048; stroke-width: 1.0;"/><text fill="#000000" font-family="sans-serif" font-size="11" lengthAdjust="spacingAndGlyphs" textLength="120" x="226" y="208.6245">ChangeSprite() : void</text><ellipse cx="217" cy="218.2188" fill="#84BE84" rx="3" ry="3" style="stroke: #038048; stroke-width: 1.0;"/><text fill="#000000" font-family="sans-serif" font-size="11" lengthAdjust="spacingAndGlyphs" textLength="103" x="226" y="221.4292">SetSprites() : void</text><ellipse cx="217" cy="231.0234" fill="#84BE84" rx="3" ry="3" style="stroke: #038048; stroke-width: 1.0;"/><text fill="#000000" font-family="sans-serif" font-size="11" lengthAdjust="spacingAndGlyphs" textLength="134" x="226" y="234.2339">PlayClip() : IEnumerator</text><ellipse cx="217" cy="243.8281" fill="#84BE84" rx="3" ry="3" style="stroke: #038048; stroke-width: 1.0;"/><text fill="#000000" font-family="sans-serif" font-size="11" lengthAdjust="spacingAndGlyphs" textLength="306" x="226" y="247.0386">UpdateInstrument(_instrument:InstrumentType) : void</text><!--MD5=[dc8ef2d4b736fa748fe7015c6bca46e4]
class NoteType--><rect fill="#FEFECE" filter="url(#f1eq2g5ikc1j3q)" height="150.4375" id="NoteType" style="stroke: #A80036; stroke-width: 1.5;" width="91" x="102.5" y="576"/><ellipse cx="117.5" cy="592" fill="#EB937F" rx="11" ry="11" style="stroke: #A80036; stroke-width: 1.0;"/><path d="M121.6094,598 L113.8906,598 L113.8906,585.6094 L121.6094,585.6094 L121.6094,587.7656 L116.3438,587.7656 L116.3438,590.4375 L121.1094,590.4375 L121.1094,592.5938 L116.3438,592.5938 L116.3438,595.8438 L121.6094,595.8438 L121.6094,598 Z "/><text fill="#000000" font-family="sans-serif" font-size="12" lengthAdjust="spacingAndGlyphs" textLength="59" x="131.5" y="596.1543">NoteType</text><line style="stroke: #A80036; stroke-width: 1.5;" x1="103.5" x2="192.5" y1="608" y2="608"/><text fill="#000000" font-family="sans-serif" font-size="11" lengthAdjust="spacingAndGlyphs" textLength="52" x="108.5" y="622.2104">none= 0,</text><text fill="#000000" font-family="sans-serif" font-size="11" lengthAdjust="spacingAndGlyphs" textLength="31" x="108.5" y="635.0151">A= 1,</text><text fill="#000000" font-family="sans-serif" font-size="11" lengthAdjust="spacingAndGlyphs" textLength="32" x="108.5" y="647.8198">B= 2,</text><text fill="#000000" font-family="sans-serif" font-size="11" lengthAdjust="spacingAndGlyphs" textLength="32" x="108.5" y="660.6245">C= 3,</text><text fill="#000000" font-family="sans-serif" font-size="11" lengthAdjust="spacingAndGlyphs" textLength="32" x="108.5" y="673.4292">D= 4,</text><text fill="#000000" font-family="sans-serif" font-size="11" lengthAdjust="spacingAndGlyphs" textLength="31" x="108.5" y="686.2339">E= 5,</text><text fill="#000000" font-family="sans-serif" font-size="11" lengthAdjust="spacingAndGlyphs" textLength="30" x="108.5" y="699.0386">F= 6,</text><text fill="#000000" font-family="sans-serif" font-size="11" lengthAdjust="spacingAndGlyphs" textLength="33" x="108.5" y="711.8433">G= 7,</text><line style="stroke: #A80036; stroke-width: 1.5;" x1="103.5" x2="192.5" y1="718.4375" y2="718.4375"/><!--MD5=[c979ec6ca0402e89d21906dea279d1c8]
class InstrumentType--><rect fill="#FEFECE" filter="url(#f1eq2g5ikc1j3q)" height="99.2188" id="InstrumentType" style="stroke: #A80036; stroke-width: 1.5;" width="129" x="228.5" y="601.5"/><ellipse cx="243.5" cy="617.5" fill="#EB937F" rx="11" ry="11" style="stroke: #A80036; stroke-width: 1.0;"/><path d="M247.6094,623.5 L239.8906,623.5 L239.8906,611.1094 L247.6094,611.1094 L247.6094,613.2656 L242.3438,613.2656 L242.3438,615.9375 L247.1094,615.9375 L247.1094,618.0938 L242.3438,618.0938 L242.3438,621.3438 L247.6094,621.3438 L247.6094,623.5 Z "/><text fill="#000000" font-family="sans-serif" font-size="12" lengthAdjust="spacingAndGlyphs" textLength="97" x="257.5" y="621.6543">InstrumentType</text><line style="stroke: #A80036; stroke-width: 1.5;" x1="229.5" x2="356.5" y1="633.5" y2="633.5"/><text fill="#000000" font-family="sans-serif" font-size="11" lengthAdjust="spacingAndGlyphs" textLength="45" x="234.5" y="647.7104">Square,</text><text fill="#000000" font-family="sans-serif" font-size="11" lengthAdjust="spacingAndGlyphs" textLength="57" x="234.5" y="660.5151">Sawtooth,</text><text fill="#000000" font-family="sans-serif" font-size="11" lengthAdjust="spacingAndGlyphs" textLength="29" x="234.5" y="673.3198">Sine,</text><text fill="#000000" font-family="sans-serif" font-size="11" lengthAdjust="spacingAndGlyphs" textLength="36" x="234.5" y="686.1245">Noise,</text><line style="stroke: #A80036; stroke-width: 1.5;" x1="229.5" x2="356.5" y1="692.7188" y2="692.7188"/><!--MD5=[fc7ca9706fe4fe1e8b96ae2d0ad7be5e]
class NoteData--><rect fill="#FEFECE" filter="url(#f1eq2g5ikc1j3q)" height="201.6563" id="NoteData" style="stroke: #A80036; stroke-width: 1.5;" width="428" x="6" y="314"/><ellipse cx="185.75" cy="330" fill="#ADD1B2" rx="11" ry="11" style="stroke: #A80036; stroke-width: 1.0;"/><path d="M188.7188,335.6406 Q188.1406,335.9375 187.5,336.0781 Q186.8594,336.2344 186.1563,336.2344 Q183.6563,336.2344 182.3281,334.5938 Q181.0156,332.9375 181.0156,329.8125 Q181.0156,326.6875 182.3281,325.0313 Q183.6563,323.375 186.1563,323.375 Q186.8594,323.375 187.5,323.5313 Q188.1563,323.6875 188.7188,323.9844 L188.7188,326.7031 Q188.0938,326.125 187.5,325.8594 Q186.9063,325.5781 186.2813,325.5781 Q184.9375,325.5781 184.25,326.6563 Q183.5625,327.7188 183.5625,329.8125 Q183.5625,331.9063 184.25,332.9844 Q184.9375,334.0469 186.2813,334.0469 Q186.9063,334.0469 187.5,333.7813 Q188.0938,333.5 188.7188,332.9219 L188.7188,335.6406 Z "/><text fill="#000000" font-family="sans-serif" font-size="12" lengthAdjust="spacingAndGlyphs" textLength="60" x="206.25" y="334.1543">NoteData</text><line style="stroke: #A80036; stroke-width: 1.5;" x1="7" x2="433" y1="346" y2="346"/><ellipse cx="17" cy="357" fill="none" rx="3" ry="3" style="stroke: #038048; stroke-width: 1.0;"/><text fill="#000000" font-family="sans-serif" font-size="11" lengthAdjust="spacingAndGlyphs" textLength="77" x="26" y="360.2104">name : string</text><ellipse cx="17" cy="369.8047" fill="none" rx="3" ry="3" style="stroke: #038048; stroke-width: 1.0;"/><text fill="#000000" font-family="sans-serif" font-size="11" lengthAdjust="spacingAndGlyphs" textLength="93" x="26" y="373.0151">sampleRate : int</text><ellipse cx="17" cy="382.6094" fill="none" rx="3" ry="3" style="stroke: #038048; stroke-width: 1.0;"/><text fill="#000000" font-family="sans-serif" font-size="11" lengthAdjust="spacingAndGlyphs" textLength="93" x="26" y="385.8198">frequency : float</text><ellipse cx="17" cy="395.4141" fill="none" rx="3" ry="3" style="stroke: #038048; stroke-width: 1.0;"/><text fill="#000000" font-family="sans-serif" font-size="11" lengthAdjust="spacingAndGlyphs" textLength="84" x="26" y="398.6245">duration : float</text><line style="stroke: #A80036; stroke-width: 1.5;" x1="7" x2="433" y1="405.2188" y2="405.2188"/><ellipse cx="17" cy="416.2188" fill="#84BE84" rx="3" ry="3" style="stroke: #038048; stroke-width: 1.0;"/><text fill="#000000" font-family="sans-serif" font-size="11" lengthAdjust="spacingAndGlyphs" textLength="100" x="26" y="419.4292">SetValues() : void</text><ellipse cx="17" cy="429.0234" fill="#84BE84" rx="3" ry="3" style="stroke: #038048; stroke-width: 1.0;"/><text fill="#000000" font-family="sans-serif" font-size="11" lengthAdjust="spacingAndGlyphs" textLength="112" x="26" y="432.2339">ChangeNote() : void</text><ellipse cx="17" cy="441.8281" fill="#84BE84" rx="3" ry="3" style="stroke: #038048; stroke-width: 1.0;"/><text fill="#000000" font-family="sans-serif" font-size="11" lengthAdjust="spacingAndGlyphs" textLength="99" x="26" y="445.0386">ClearNote() : void</text><ellipse cx="17" cy="454.6328" fill="#84BE84" rx="3" ry="3" style="stroke: #038048; stroke-width: 1.0;"/><text fill="#000000" font-family="sans-serif" font-size="11" lengthAdjust="spacingAndGlyphs" textLength="402" x="26" y="457.8433">CreateClip(_name:string, _samplerate:int, _frequency:float) : AudioClip</text><ellipse cx="17" cy="467.4375" fill="#84BE84" rx="3" ry="3" style="stroke: #038048; stroke-width: 1.0;"/><text fill="#000000" font-family="sans-serif" font-size="11" lengthAdjust="spacingAndGlyphs" textLength="358" x="26" y="470.6479">CreateSine(_size:int, _samplerate:int, _frequency:float) : float[]</text><ellipse cx="17" cy="480.2422" fill="#84BE84" rx="3" ry="3" style="stroke: #038048; stroke-width: 1.0;"/><text fill="#000000" font-family="sans-serif" font-size="11" lengthAdjust="spacingAndGlyphs" textLength="374" x="26" y="483.4526">CreateSquare(_size:int, _samplerate:int, _frequency:float) : float[]</text><ellipse cx="17" cy="493.0469" fill="#84BE84" rx="3" ry="3" style="stroke: #038048; stroke-width: 1.0;"/><text fill="#000000" font-family="sans-serif" font-size="11" lengthAdjust="spacingAndGlyphs" textLength="386" x="26" y="496.2573">CreateSawtooth(_size:int, _samplerate:int, _frequency:float) : float[]</text><ellipse cx="17" cy="505.8516" fill="#84BE84" rx="3" ry="3" style="stroke: #038048; stroke-width: 1.0;"/><text fill="#000000" font-family="sans-serif" font-size="11" lengthAdjust="spacingAndGlyphs" textLength="365" x="26" y="509.062">CreateNoise(_size:int, _samplerate:int, _frequency:float) : float[]</text><!--MD5=[2e1ff885372daab8d802f213ced6c836]
class Dictionary`2--><rect fill="#FEFECE" filter="url(#f1eq2g5ikc1j3q)" height="48" id="Dictionary`2" style="stroke: #A80036; stroke-width: 1.5;" width="146" x="573" y="161"/><ellipse cx="588" cy="177" fill="#ADD1B2" rx="11" ry="11" style="stroke: #A80036; stroke-width: 1.0;"/><path d="M590.9688,182.6406 Q590.3906,182.9375 589.75,183.0781 Q589.1094,183.2344 588.4063,183.2344 Q585.9063,183.2344 584.5781,181.5938 Q583.2656,179.9375 583.2656,176.8125 Q583.2656,173.6875 584.5781,172.0313 Q585.9063,170.375 588.4063,170.375 Q589.1094,170.375 589.75,170.5313 Q590.4063,170.6875 590.9688,170.9844 L590.9688,173.7031 Q590.3438,173.125 589.75,172.8594 Q589.1563,172.5781 588.5313,172.5781 Q587.1875,172.5781 586.5,173.6563 Q585.8125,174.7188 585.8125,176.8125 Q585.8125,178.9063 586.5,179.9844 Q587.1875,181.0469 588.5313,181.0469 Q589.1563,181.0469 589.75,180.7813 Q590.3438,180.5 590.9688,179.9219 L590.9688,182.6406 Z "/><text fill="#000000" font-family="sans-serif" font-size="12" lengthAdjust="spacingAndGlyphs" textLength="76" x="602" y="181.1543">Dictionary`2</text><rect fill="#FFFFFF" height="15.9688" style="stroke: #000000; stroke-width: 1.0; stroke-dasharray: 2.0,2.0;" width="36" x="686" y="158"/><text fill="#000000" font-family="sans-serif" font-size="12" font-style="italic" lengthAdjust="spacingAndGlyphs" textLength="34" x="687" y="170.1387">T1,T2</text><line style="stroke: #A80036; stroke-width: 1.5;" x1="574" x2="718" y1="193" y2="193"/><line style="stroke: #A80036; stroke-width: 1.5;" x1="574" x2="718" y1="201" y2="201"/><!--MD5=[83b3cf3d23d77c6f1e1b5291a241bc2a]
class MonoBehaviour--><rect fill="#FEFECE" filter="url(#f1eq2g5ikc1j3q)" height="48" id="MonoBehaviour" style="stroke: #A80036; stroke-width: 1.5;" width="128" x="308" y="8"/><ellipse cx="323" cy="24" fill="#ADD1B2" rx="11" ry="11" style="stroke: #A80036; stroke-width: 1.0;"/><path d="M325.9688,29.6406 Q325.3906,29.9375 324.75,30.0781 Q324.1094,30.2344 323.4063,30.2344 Q320.9063,30.2344 319.5781,28.5938 Q318.2656,26.9375 318.2656,23.8125 Q318.2656,20.6875 319.5781,19.0313 Q320.9063,17.375 323.4063,17.375 Q324.1094,17.375 324.75,17.5313 Q325.4063,17.6875 325.9688,17.9844 L325.9688,20.7031 Q325.3438,20.125 324.75,19.8594 Q324.1563,19.5781 323.5313,19.5781 Q322.1875,19.5781 321.5,20.6563 Q320.8125,21.7188 320.8125,23.8125 Q320.8125,25.9063 321.5,26.9844 Q322.1875,28.0469 323.5313,28.0469 Q324.1563,28.0469 324.75,27.7813 Q325.3438,27.5 325.9688,26.9219 L325.9688,29.6406 Z "/><text fill="#000000" font-family="sans-serif" font-size="12" lengthAdjust="spacingAndGlyphs" textLength="96" x="337" y="28.1543">MonoBehaviour</text><line style="stroke: #A80036; stroke-width: 1.5;" x1="309" x2="435" y1="40" y2="40"/><line style="stroke: #A80036; stroke-width: 1.5;" x1="309" x2="435" y1="48" y2="48"/><!--MD5=[1dcb072468b0d7732dfb17a5d7634985]
class AudioSource--><rect fill="#FEFECE" filter="url(#f1eq2g5ikc1j3q)" height="48" id="AudioSource" style="stroke: #A80036; stroke-width: 1.5;" width="111" x="468.5" y="391"/><ellipse cx="483.5" cy="407" fill="#ADD1B2" rx="11" ry="11" style="stroke: #A80036; stroke-width: 1.0;"/><path d="M486.4688,412.6406 Q485.8906,412.9375 485.25,413.0781 Q484.6094,413.2344 483.9063,413.2344 Q481.4063,413.2344 480.0781,411.5938 Q478.7656,409.9375 478.7656,406.8125 Q478.7656,403.6875 480.0781,402.0313 Q481.4063,400.375 483.9063,400.375 Q484.6094,400.375 485.25,400.5313 Q485.9063,400.6875 486.4688,400.9844 L486.4688,403.7031 Q485.8438,403.125 485.25,402.8594 Q484.6563,402.5781 484.0313,402.5781 Q482.6875,402.5781 482,403.6563 Q481.3125,404.7188 481.3125,406.8125 Q481.3125,408.9063 482,409.9844 Q482.6875,411.0469 484.0313,411.0469 Q484.6563,411.0469 485.25,410.7813 Q485.8438,410.5 486.4688,409.9219 L486.4688,412.6406 Z "/><text fill="#000000" font-family="sans-serif" font-size="12" lengthAdjust="spacingAndGlyphs" textLength="79" x="497.5" y="411.1543">AudioSource</text><line style="stroke: #A80036; stroke-width: 1.5;" x1="469.5" x2="578.5" y1="423" y2="423"/><line style="stroke: #A80036; stroke-width: 1.5;" x1="469.5" x2="578.5" y1="431" y2="431"/><!--MD5=[8120c118a2cf789a6bd792eb9a660b55]
reverse link MonoBehaviour to SequenceNode--><path d="M372,76.56 C372,88.87 372,102.57 372,115.96 " fill="none" id="MonoBehaviour&lt;-SequenceNode" style="stroke: #A80036; stroke-width: 1.0;"/><polygon fill="none" points="365,76.26,372,56.26,379,76.26,365,76.26" style="stroke: #A80036; stroke-width: 1.0;"/><!--MD5=[e0eda11052fa3715de78e752e9df2245]
link SequenceNode to NoteData--><path d="M326.6,254.1 C314.97,271.54 302.19,290.71 289.65,309.53 " fill="none" id="SequenceNode-&gt;NoteData" style="stroke: #A80036; stroke-width: 1.0;"/><polygon fill="#A80036" points="286.81,313.79,295.1222,308.5072,289.5769,309.6254,288.4587,304.0801,286.81,313.79" style="stroke: #A80036; stroke-width: 1.0;"/><text fill="#000000" font-family="sans-serif" font-size="13" lengthAdjust="spacingAndGlyphs" textLength="29" x="261.6515" y="302.891">note</text><!--MD5=[f6493581ffc410fdf07d057f740ad48d]
link SequenceNode to AudioSource--><path d="M417.4,254.1 C447.04,298.55 484.13,354.19 505.83,386.74 " fill="none" id="SequenceNode-&gt;AudioSource" style="stroke: #A80036; stroke-width: 1.0;"/><polygon fill="#A80036" points="508.66,390.99,506.9959,381.2827,505.8865,386.8297,500.3395,385.7203,508.66,390.99" style="stroke: #A80036; stroke-width: 1.0;"/><text fill="#000000" font-family="sans-serif" font-size="13" lengthAdjust="spacingAndGlyphs" textLength="80" x="514.9791" y="379.9995">audioSource</text><!--MD5=[5df8c3cfe8338b1999b857c289bd2a7e]
link SequenceNode to Dictionary`2--><path d="M550.17,185 C550.17,185 556.72,185 559.38,185 " fill="none" id="SequenceNode-Dictionary`2" style="stroke: #A80036; stroke-width: 1.0;"/><polygon fill="#A80036" points="572.71,185,563.71,181,567.71,185,563.71,189,572.71,185" style="stroke: #A80036; stroke-width: 1.0;"/><line style="stroke: #A80036; stroke-width: 1.0;" x1="567.71" x2="559.71" y1="185" y2="185"/><polygon fill="#FFFFFF" points="538.17,185,544.17,189,550.17,185,544.17,181,538.17,185" style="stroke: #A80036; stroke-width: 1.0;"/><text fill="#000000" font-family="sans-serif" font-size="13" lengthAdjust="spacingAndGlyphs" textLength="136" x="426.0864" y="226.144">sprite&lt;string,Sprite&gt;</text><!--MD5=[30de96a0cb40e7652a2f8bf9ed63574c]
link NoteData to NoteType--><path d="M189.15,516.26 C183.54,534.51 177.75,553.32 172.35,570.86 " fill="none" id="NoteData-&gt;NoteType" style="stroke: #A80036; stroke-width: 1.0;"/><polygon fill="#A80036" points="170.84,575.77,177.3146,568.3484,172.3134,570.992,169.6698,565.9909,170.84,575.77" style="stroke: #A80036; stroke-width: 1.0;"/><text fill="#000000" font-family="sans-serif" font-size="13" lengthAdjust="spacingAndGlyphs" textLength="29" x="142.6349" y="564.9372">note</text><!--MD5=[5bfdfd0400ba7ac3e02ea25c718a951f]
link NoteData to InstrumentType--><path d="M251.28,516.26 C259.87,543.82 268.87,572.65 276.29,596.45 " fill="none" id="NoteData-&gt;InstrumentType" style="stroke: #A80036; stroke-width: 1.0;"/><polygon fill="#A80036" points="277.85,601.45,279.0017,591.6687,276.3676,596.6748,271.3615,594.0406,277.85,601.45" style="stroke: #A80036; stroke-width: 1.0;"/><text fill="#000000" font-family="sans-serif" font-size="13" lengthAdjust="spacingAndGlyphs" textLength="70" x="200.7977" y="590.4882">instrument</text><!--MD5=[5e8e64e836a1f6deab3ad3e4c1e1c273]
@startuml
class SequenceNode {
    Start() : void
    + ClickButton() : void
    + ClickBack() : void
    + ChangeSprite() : void
    + SetSprites() : void
    + PlayClip() : IEnumerator
    + UpdateInstrument(_instrument:InstrumentType) : void
}
enum NoteType {
    none= 0,
    A= 1,
    B= 2,
    C= 3,
    D= 4,
    E= 5,
    F= 6,
    G= 7,
}
enum InstrumentType {
    Square,
    Sawtooth,
    Sine,
    Noise,
}
class NoteData {
    + name : string
    + sampleRate : int
    + frequency : float
    + duration : float
    + SetValues() : void
    + ChangeNote() : void
    + ClearNote() : void
    + CreateClip(_name:string, _samplerate:int, _frequency:float) : AudioClip
    + CreateSine(_size:int, _samplerate:int, _frequency:float) : float[]
    + CreateSquare(_size:int, _samplerate:int, _frequency:float) : float[]
    + CreateSawtooth(_size:int, _samplerate:int, _frequency:float) : float[]
    + CreateNoise(_size:int, _samplerate:int, _frequency:float) : float[]
}
class "Dictionary`2"<T1,T2> {
}
MonoBehaviour <|- - SequenceNode
SequenceNode - -> "note" NoteData
SequenceNode - -> "audioSource" AudioSource
SequenceNode o-> "sprite<string,Sprite>" "Dictionary`2"
NoteData - -> "note" NoteType
NoteData - -> "instrument" InstrumentType
@enduml

PlantUML version 1.2020.02(Sun Mar 01 10:22:07 GMT 2020)
(GPL source distribution)
Java Runtime: OpenJDK Runtime Environment
JVM: OpenJDK 64-Bit Server VM
Java Version: 11.0.9+11-Ubuntu-0ubuntu1
Operating System: Linux
Default Encoding: ANSI_X3.4-1968
Language: en
Country: US
--></g></svg>