<?xml version="1.0" encoding="UTF-8" standalone="no"?><svg xmlns="http://www.w3.org/2000/svg" xmlns:xlink="http://www.w3.org/1999/xlink" contentScriptType="application/ecmascript" contentStyleType="text/css" height="226px" preserveAspectRatio="none" style="width:1033px;height:226px;" version="1.1" viewBox="0 0 1033 226" width="1033px" zoomAndPan="magnify"><defs><filter height="300%" id="fwbaiqq36msk1" width="300%" x="-1" y="-1"><feGaussianBlur result="blurOut" stdDeviation="2.0"/><feColorMatrix in="blurOut" result="blurOut2" type="matrix" values="0 0 0 0 0 0 0 0 0 0 0 0 0 0 0 0 0 0 .4 0"/><feOffset dx="4.0" dy="4.0" in="blurOut2" result="blurOut3"/><feBlend in="SourceGraphic" in2="blurOut3" mode="normal"/></filter></defs><g><!--MD5=[a340c818e1a574c4e337041b99b893a1]
class Sequencer--><rect fill="#FEFECE" filter="url(#fwbaiqq36msk1)" height="86.4141" id="Sequencer" style="stroke: #A80036; stroke-width: 1.5;" width="491" x="531.5" y="14.5"/><ellipse cx="738.75" cy="30.5" fill="#ADD1B2" rx="11" ry="11" style="stroke: #A80036; stroke-width: 1.0;"/><path d="M741.7188,36.1406 Q741.1406,36.4375 740.5,36.5781 Q739.8594,36.7344 739.1563,36.7344 Q736.6563,36.7344 735.3281,35.0938 Q734.0156,33.4375 734.0156,30.3125 Q734.0156,27.1875 735.3281,25.5313 Q736.6563,23.875 739.1563,23.875 Q739.8594,23.875 740.5,24.0313 Q741.1563,24.1875 741.7188,24.4844 L741.7188,27.2031 Q741.0938,26.625 740.5,26.3594 Q739.9063,26.0781 739.2813,26.0781 Q737.9375,26.0781 737.25,27.1563 Q736.5625,28.2188 736.5625,30.3125 Q736.5625,32.4063 737.25,33.4844 Q737.9375,34.5469 739.2813,34.5469 Q739.9063,34.5469 740.5,34.2813 Q741.0938,34 741.7188,33.4219 L741.7188,36.1406 Z "/><text fill="#000000" font-family="sans-serif" font-size="12" lengthAdjust="spacingAndGlyphs" textLength="68" x="759.25" y="34.6543">Sequencer</text><line style="stroke: #A80036; stroke-width: 1.5;" x1="532.5" x2="1021.5" y1="46.5" y2="46.5"/><ellipse cx="542.5" cy="57.5" fill="none" rx="3" ry="3" style="stroke: #038048; stroke-width: 1.0;"/><text fill="#000000" font-family="sans-serif" font-size="11" lengthAdjust="spacingAndGlyphs" textLength="87" x="551.5" y="60.7104">islooping : bool</text><line style="stroke: #A80036; stroke-width: 1.5;" x1="532.5" x2="1021.5" y1="67.3047" y2="67.3047"/><ellipse cx="542.5" cy="78.3047" fill="#84BE84" rx="3" ry="3" style="stroke: #038048; stroke-width: 1.0;"/><text fill="#000000" font-family="sans-serif" font-size="11" lengthAdjust="spacingAndGlyphs" textLength="258" x="551.5" y="81.5151">OnStart(_manager:ApplicationManager) : void</text><ellipse cx="542.5" cy="91.1094" fill="#84BE84" rx="3" ry="3" style="stroke: #038048; stroke-width: 1.0;"/><text fill="#000000" font-family="sans-serif" font-size="11" lengthAdjust="spacingAndGlyphs" textLength="465" x="551.5" y="94.3198">PlayTheSequence(_sequence:NoteSequence, _source:AudioSource) : IEnumerator</text><!--MD5=[a659b5de59fa776591871637ddeded8b]
class NoteSequence--><rect fill="#FEFECE" filter="url(#fwbaiqq36msk1)" height="99.2188" id="NoteSequence" style="stroke: #A80036; stroke-width: 1.5;" width="330" x="6" y="8"/><ellipse cx="120.25" cy="24" fill="#ADD1B2" rx="11" ry="11" style="stroke: #A80036; stroke-width: 1.0;"/><path d="M123.2188,29.6406 Q122.6406,29.9375 122,30.0781 Q121.3594,30.2344 120.6563,30.2344 Q118.1563,30.2344 116.8281,28.5938 Q115.5156,26.9375 115.5156,23.8125 Q115.5156,20.6875 116.8281,19.0313 Q118.1563,17.375 120.6563,17.375 Q121.3594,17.375 122,17.5313 Q122.6563,17.6875 123.2188,17.9844 L123.2188,20.7031 Q122.5938,20.125 122,19.8594 Q121.4063,19.5781 120.7813,19.5781 Q119.4375,19.5781 118.75,20.6563 Q118.0625,21.7188 118.0625,23.8125 Q118.0625,25.9063 118.75,26.9844 Q119.4375,28.0469 120.7813,28.0469 Q121.4063,28.0469 122,27.7813 Q122.5938,27.5 123.2188,26.9219 L123.2188,29.6406 Z "/><text fill="#000000" font-family="sans-serif" font-size="12" lengthAdjust="spacingAndGlyphs" textLength="93" x="140.75" y="28.1543">NoteSequence</text><line style="stroke: #A80036; stroke-width: 1.5;" x1="7" x2="335" y1="40" y2="40"/><line style="stroke: #A80036; stroke-width: 1.5;" x1="7" x2="335" y1="48" y2="48"/><ellipse cx="17" cy="59" fill="#84BE84" rx="3" ry="3" style="stroke: #038048; stroke-width: 1.0;"/><text fill="#000000" font-family="sans-serif" font-size="11" lengthAdjust="spacingAndGlyphs" textLength="139" x="26" y="62.2104">UpdateSequence() : void</text><ellipse cx="17" cy="71.8047" fill="#84BE84" rx="3" ry="3" style="stroke: #038048; stroke-width: 1.0;"/><text fill="#000000" font-family="sans-serif" font-size="11" lengthAdjust="spacingAndGlyphs" textLength="304" x="26" y="75.0151">ApplySequenceToNode(_notes:List&lt;NoteData&gt;) : void</text><ellipse cx="17" cy="84.6094" fill="#84BE84" rx="3" ry="3" style="stroke: #038048; stroke-width: 1.0;"/><text fill="#000000" font-family="sans-serif" font-size="11" lengthAdjust="spacingAndGlyphs" textLength="148" x="26" y="87.8198">GetData() : SequenceData</text><ellipse cx="17" cy="97.4141" fill="#84BE84" rx="3" ry="3" style="stroke: #038048; stroke-width: 1.0;"/><text fill="#000000" font-family="sans-serif" font-size="11" lengthAdjust="spacingAndGlyphs" textLength="210" x="26" y="100.6245">ApplyData(data:SequenceData) : void</text><!--MD5=[42186e82e641e6c85e509a5190208133]
class SequenceData--><rect fill="#FEFECE" filter="url(#fwbaiqq36msk1)" height="48" id="SequenceData" style="stroke: #A80036; stroke-width: 1.5;" width="125" x="371.5" y="33.5"/><ellipse cx="386.5" cy="49.5" fill="#ADD1B2" rx="11" ry="11" style="stroke: #A80036; stroke-width: 1.0;"/><path d="M389.4688,55.1406 Q388.8906,55.4375 388.25,55.5781 Q387.6094,55.7344 386.9063,55.7344 Q384.4063,55.7344 383.0781,54.0938 Q381.7656,52.4375 381.7656,49.3125 Q381.7656,46.1875 383.0781,44.5313 Q384.4063,42.875 386.9063,42.875 Q387.6094,42.875 388.25,43.0313 Q388.9063,43.1875 389.4688,43.4844 L389.4688,46.2031 Q388.8438,45.625 388.25,45.3594 Q387.6563,45.0781 387.0313,45.0781 Q385.6875,45.0781 385,46.1563 Q384.3125,47.2188 384.3125,49.3125 Q384.3125,51.4063 385,52.4844 Q385.6875,53.5469 387.0313,53.5469 Q387.6563,53.5469 388.25,53.2813 Q388.8438,53 389.4688,52.4219 L389.4688,55.1406 Z "/><text fill="#000000" font-family="sans-serif" font-size="12" lengthAdjust="spacingAndGlyphs" textLength="93" x="400.5" y="53.6543">SequenceData</text><line style="stroke: #A80036; stroke-width: 1.5;" x1="372.5" x2="495.5" y1="65.5" y2="65.5"/><line style="stroke: #A80036; stroke-width: 1.5;" x1="372.5" x2="495.5" y1="73.5" y2="73.5"/><!--MD5=[e644022de7dea015dd09463c37421447]
class List`1--><rect fill="#FEFECE" filter="url(#fwbaiqq36msk1)" height="48" id="List`1" style="stroke: #A80036; stroke-width: 1.5;" width="78" x="163" y="167"/><ellipse cx="178" cy="183" fill="#ADD1B2" rx="11" ry="11" style="stroke: #A80036; stroke-width: 1.0;"/><path d="M180.9688,188.6406 Q180.3906,188.9375 179.75,189.0781 Q179.1094,189.2344 178.4063,189.2344 Q175.9063,189.2344 174.5781,187.5938 Q173.2656,185.9375 173.2656,182.8125 Q173.2656,179.6875 174.5781,178.0313 Q175.9063,176.375 178.4063,176.375 Q179.1094,176.375 179.75,176.5313 Q180.4063,176.6875 180.9688,176.9844 L180.9688,179.7031 Q180.3438,179.125 179.75,178.8594 Q179.1563,178.5781 178.5313,178.5781 Q177.1875,178.5781 176.5,179.6563 Q175.8125,180.7188 175.8125,182.8125 Q175.8125,184.9063 176.5,185.9844 Q177.1875,187.0469 178.5313,187.0469 Q179.1563,187.0469 179.75,186.7813 Q180.3438,186.5 180.9688,185.9219 L180.9688,188.6406 Z "/><text fill="#000000" font-family="sans-serif" font-size="12" lengthAdjust="spacingAndGlyphs" textLength="35" x="192" y="187.1543">List`1</text><rect fill="#FFFFFF" height="15.9688" style="stroke: #000000; stroke-width: 1.0; stroke-dasharray: 2.0,2.0;" width="9" x="235" y="164"/><text fill="#000000" font-family="sans-serif" font-size="12" font-style="italic" lengthAdjust="spacingAndGlyphs" textLength="7" x="236" y="176.1387">T</text><line style="stroke: #A80036; stroke-width: 1.5;" x1="164" x2="240" y1="199" y2="199"/><line style="stroke: #A80036; stroke-width: 1.5;" x1="164" x2="240" y1="207" y2="207"/><!--MD5=[aab07c8285b720c4869802ba7d0bd128]
class ApplicationManager--><rect fill="#FEFECE" filter="url(#fwbaiqq36msk1)" height="48" id="ApplicationManager" style="stroke: #A80036; stroke-width: 1.5;" width="156" x="699" y="167"/><ellipse cx="714" cy="183" fill="#ADD1B2" rx="11" ry="11" style="stroke: #A80036; stroke-width: 1.0;"/><path d="M716.9688,188.6406 Q716.3906,188.9375 715.75,189.0781 Q715.1094,189.2344 714.4063,189.2344 Q711.9063,189.2344 710.5781,187.5938 Q709.2656,185.9375 709.2656,182.8125 Q709.2656,179.6875 710.5781,178.0313 Q711.9063,176.375 714.4063,176.375 Q715.1094,176.375 715.75,176.5313 Q716.4063,176.6875 716.9688,176.9844 L716.9688,179.7031 Q716.3438,179.125 715.75,178.8594 Q715.1563,178.5781 714.5313,178.5781 Q713.1875,178.5781 712.5,179.6563 Q711.8125,180.7188 711.8125,182.8125 Q711.8125,184.9063 712.5,185.9844 Q713.1875,187.0469 714.5313,187.0469 Q715.1563,187.0469 715.75,186.7813 Q716.3438,186.5 716.9688,185.9219 L716.9688,188.6406 Z "/><text fill="#000000" font-family="sans-serif" font-size="12" lengthAdjust="spacingAndGlyphs" textLength="124" x="728" y="187.1543">ApplicationManager</text><line style="stroke: #A80036; stroke-width: 1.5;" x1="700" x2="854" y1="199" y2="199"/><line style="stroke: #A80036; stroke-width: 1.5;" x1="700" x2="854" y1="207" y2="207"/><!--MD5=[c979ec6ca0402e89d21906dea279d1c8]
class InstrumentType--><rect fill="#FEFECE" filter="url(#fwbaiqq36msk1)" height="48" id="InstrumentType" style="stroke: #A80036; stroke-width: 1.5;" width="129" x="307.5" y="167"/><ellipse cx="322.5" cy="183" fill="#ADD1B2" rx="11" ry="11" style="stroke: #A80036; stroke-width: 1.0;"/><path d="M325.4688,188.6406 Q324.8906,188.9375 324.25,189.0781 Q323.6094,189.2344 322.9063,189.2344 Q320.4063,189.2344 319.0781,187.5938 Q317.7656,185.9375 317.7656,182.8125 Q317.7656,179.6875 319.0781,178.0313 Q320.4063,176.375 322.9063,176.375 Q323.6094,176.375 324.25,176.5313 Q324.9063,176.6875 325.4688,176.9844 L325.4688,179.7031 Q324.8438,179.125 324.25,178.8594 Q323.6563,178.5781 323.0313,178.5781 Q321.6875,178.5781 321,179.6563 Q320.3125,180.7188 320.3125,182.8125 Q320.3125,184.9063 321,185.9844 Q321.6875,187.0469 323.0313,187.0469 Q323.6563,187.0469 324.25,186.7813 Q324.8438,186.5 325.4688,185.9219 L325.4688,188.6406 Z "/><text fill="#000000" font-family="sans-serif" font-size="12" lengthAdjust="spacingAndGlyphs" textLength="97" x="336.5" y="187.1543">InstrumentType</text><line style="stroke: #A80036; stroke-width: 1.5;" x1="308.5" x2="435.5" y1="199" y2="199"/><line style="stroke: #A80036; stroke-width: 1.5;" x1="308.5" x2="435.5" y1="207" y2="207"/><!--MD5=[8835b38639b6b41f9ed989e5e26db69d]
link Sequencer to ApplicationManager--><path d="M777,100.83 C777,120.7 777,143.85 777,161.58 " fill="none" id="Sequencer-&gt;ApplicationManager" style="stroke: #A80036; stroke-width: 1.0;"/><polygon fill="#A80036" points="777,166.9,781,157.9,777,161.9,773,157.9,777,166.9" style="stroke: #A80036; stroke-width: 1.0;"/><text fill="#000000" font-family="sans-serif" font-size="13" lengthAdjust="spacingAndGlyphs" textLength="58" x="711.5688" y="155.8864">manager</text><!--MD5=[9ad14ad5c2f14fec54eecf68cf7bd7c2]
link NoteSequence to List`1--><path d="M185.2151,118.7694 C185.2151,118.7694 191.07,143.63 193.58,154.3 " fill="none" id="NoteSequence-List`1" style="stroke: #A80036; stroke-width: 1.0;"/><polygon fill="#A80036" points="196.57,166.98,198.3968,157.3021,195.422,162.1136,190.6105,159.1388,196.57,166.98" style="stroke: #A80036; stroke-width: 1.0;"/><line style="stroke: #A80036; stroke-width: 1.0;" x1="195.422" x2="193.59" y1="162.1136" y2="154.325"/><polygon fill="#FFFFFF" points="182.46,107.09,179.9444,113.8481,185.2151,118.7694,187.7307,112.0114,182.46,107.09" style="stroke: #A80036; stroke-width: 1.0;"/><text fill="#000000" font-family="sans-serif" font-size="13" lengthAdjust="spacingAndGlyphs" textLength="120" x="59.8036" y="155.9869">notes&lt;NoteData&gt;</text><!--MD5=[ada439c05acdf1778df570e17b3aa682]
link NoteSequence to InstrumentType--><path d="M245.27,107.09 C274.87,126.46 307.74,147.96 332.58,164.21 " fill="none" id="NoteSequence-&gt;InstrumentType" style="stroke: #A80036; stroke-width: 1.0;"/><polygon fill="#A80036" points="336.81,166.98,331.4678,158.7059,332.6257,164.243,327.0886,165.4008,336.81,166.98" style="stroke: #A80036; stroke-width: 1.0;"/><text fill="#000000" font-family="sans-serif" font-size="13" lengthAdjust="spacingAndGlyphs" textLength="132" x="222.312" y="155.9252">sequenceInstrument</text><!--MD5=[0d289be9c2cdd14f31af7f3451ae6327]
link SequenceData to List`1--><path d="M395.85,81.74 C382.38,89.84 367.07,98.92 353,107 C317.17,127.57 276.05,150.1 245.78,166.49 " fill="none" id="SequenceData-&gt;List`1" style="stroke: #A80036; stroke-width: 1.0;"/><polygon fill="#A80036" points="241.01,169.07,250.8304,168.3212,245.4114,166.6978,247.0348,161.2789,241.01,169.07" style="stroke: #A80036; stroke-width: 1.0;"/><text fill="#000000" font-family="sans-serif" font-size="13" lengthAdjust="spacingAndGlyphs" textLength="120" x="202.4221" y="155.9445">notes&lt;NoteData&gt;</text><!--MD5=[a034cf8cd04bd3fc47efe3774c7d137b]
link SequenceData to InstrumentType--><path d="M423.06,81.71 C412.5,104.1 396.5,138.04 385.23,161.94 " fill="none" id="SequenceData-&gt;InstrumentType" style="stroke: #A80036; stroke-width: 1.0;"/><polygon fill="#A80036" points="383.04,166.58,390.5051,160.1557,385.1786,162.0604,383.2738,156.7339,383.04,166.58" style="stroke: #A80036; stroke-width: 1.0;"/><text fill="#000000" font-family="sans-serif" font-size="13" lengthAdjust="spacingAndGlyphs" textLength="132" x="401.8185" y="155.8826">sequenceInstrument</text><!--MD5=[9a9f7825867fa6ed3cdc17de16069f53]
@startuml
class Sequencer {
    + islooping : bool
    + OnStart(_manager:ApplicationManager) : void
    + PlayTheSequence(_sequence:NoteSequence, _source:AudioSource) : IEnumerator
}
class NoteSequence {
    + UpdateSequence() : void
    + ApplySequenceToNode(_notes:List<NoteData>) : void
    + GetData() : SequenceData
    + ApplyData(data:SequenceData) : void
}
class SequenceData {
}
class "List`1"<T> {
}
Sequencer - -> "manager" ApplicationManager
NoteSequence o-> "notes<NoteData>" "List`1"
NoteSequence - -> "sequenceInstrument" InstrumentType
SequenceData - -> "notes<NoteData>" "List`1"
SequenceData - -> "sequenceInstrument" InstrumentType
@enduml

PlantUML version 1.2020.02(Sun Mar 01 10:22:07 GMT 2020)
(GPL source distribution)
Java Runtime: OpenJDK Runtime Environment
JVM: OpenJDK 64-Bit Server VM
Java Version: 11.0.9+11-Ubuntu-0ubuntu1
Operating System: Linux
Default Encoding: ANSI_X3.4-1968
Language: en
Country: US
--></g></svg>