<?xml version="1.0" encoding="UTF-8" standalone="no"?><svg xmlns="http://www.w3.org/2000/svg" xmlns:xlink="http://www.w3.org/1999/xlink" contentScriptType="application/ecmascript" contentStyleType="text/css" height="296px" preserveAspectRatio="none" style="width:339px;height:296px;" version="1.1" viewBox="0 0 339 296" width="339px" zoomAndPan="magnify"><defs><filter height="300%" id="f4gueae4fqvrf" width="300%" x="-1" y="-1"><feGaussianBlur result="blurOut" stdDeviation="2.0"/><feColorMatrix in="blurOut" result="blurOut2" type="matrix" values="0 0 0 0 0 0 0 0 0 0 0 0 0 0 0 0 0 0 .4 0"/><feOffset dx="4.0" dy="4.0" in="blurOut2" result="blurOut3"/><feBlend in="SourceGraphic" in2="blurOut3" mode="normal"/></filter></defs><g><!--MD5=[86a0c9f401f7bc27b9333eb8d5e7c383]
class UIClickHandler--><rect fill="#FEFECE" filter="url(#f4gueae4fqvrf)" height="60.8047" id="UIClickHandler" style="stroke: #A80036; stroke-width: 1.5;" width="309" x="6" y="116"/><ellipse cx="111.75" cy="132" fill="#ADD1B2" rx="11" ry="11" style="stroke: #A80036; stroke-width: 1.0;"/><path d="M114.7188,137.6406 Q114.1406,137.9375 113.5,138.0781 Q112.8594,138.2344 112.1563,138.2344 Q109.6563,138.2344 108.3281,136.5938 Q107.0156,134.9375 107.0156,131.8125 Q107.0156,128.6875 108.3281,127.0313 Q109.6563,125.375 112.1563,125.375 Q112.8594,125.375 113.5,125.5313 Q114.1563,125.6875 114.7188,125.9844 L114.7188,128.7031 Q114.0938,128.125 113.5,127.8594 Q112.9063,127.5781 112.2813,127.5781 Q110.9375,127.5781 110.25,128.6563 Q109.5625,129.7188 109.5625,131.8125 Q109.5625,133.9063 110.25,134.9844 Q110.9375,136.0469 112.2813,136.0469 Q112.9063,136.0469 113.5,135.7813 Q114.0938,135.5 114.7188,134.9219 L114.7188,137.6406 Z "/><text fill="#000000" font-family="sans-serif" font-size="12" lengthAdjust="spacingAndGlyphs" textLength="89" x="132.25" y="136.1543">UIClickHandler</text><line style="stroke: #A80036; stroke-width: 1.5;" x1="7" x2="314" y1="148" y2="148"/><line style="stroke: #A80036; stroke-width: 1.5;" x1="7" x2="314" y1="156" y2="156"/><ellipse cx="17" cy="167" fill="#84BE84" rx="3" ry="3" style="stroke: #038048; stroke-width: 1.0;"/><text fill="#000000" font-family="sans-serif" font-size="11" lengthAdjust="spacingAndGlyphs" textLength="283" x="26" y="170.2104">OnPointerClick(eventData:PointerEventData) : void</text><!--MD5=[83b3cf3d23d77c6f1e1b5291a241bc2a]
class MonoBehaviour--><rect fill="#FEFECE" filter="url(#f4gueae4fqvrf)" height="48" id="MonoBehaviour" style="stroke: #A80036; stroke-width: 1.5;" width="128" x="7.5" y="8"/><ellipse cx="22.5" cy="24" fill="#ADD1B2" rx="11" ry="11" style="stroke: #A80036; stroke-width: 1.0;"/><path d="M25.4688,29.6406 Q24.8906,29.9375 24.25,30.0781 Q23.6094,30.2344 22.9063,30.2344 Q20.4063,30.2344 19.0781,28.5938 Q17.7656,26.9375 17.7656,23.8125 Q17.7656,20.6875 19.0781,19.0313 Q20.4063,17.375 22.9063,17.375 Q23.6094,17.375 24.25,17.5313 Q24.9063,17.6875 25.4688,17.9844 L25.4688,20.7031 Q24.8438,20.125 24.25,19.8594 Q23.6563,19.5781 23.0313,19.5781 Q21.6875,19.5781 21,20.6563 Q20.3125,21.7188 20.3125,23.8125 Q20.3125,25.9063 21,26.9844 Q21.6875,28.0469 23.0313,28.0469 Q23.6563,28.0469 24.25,27.7813 Q24.8438,27.5 25.4688,26.9219 L25.4688,29.6406 Z "/><text fill="#000000" font-family="sans-serif" font-size="12" lengthAdjust="spacingAndGlyphs" textLength="96" x="36.5" y="28.1543">MonoBehaviour</text><line style="stroke: #A80036; stroke-width: 1.5;" x1="8.5" x2="134.5" y1="40" y2="40"/><line style="stroke: #A80036; stroke-width: 1.5;" x1="8.5" x2="134.5" y1="48" y2="48"/><!--MD5=[013e6d23b9b4414f3460dbf272d438e4]
class IPointerClickHandler--><rect fill="#FEFECE" filter="url(#f4gueae4fqvrf)" height="48" id="IPointerClickHandler" style="stroke: #A80036; stroke-width: 1.5;" width="157" x="171" y="8"/><ellipse cx="186" cy="24" fill="#ADD1B2" rx="11" ry="11" style="stroke: #A80036; stroke-width: 1.0;"/><path d="M188.9688,29.6406 Q188.3906,29.9375 187.75,30.0781 Q187.1094,30.2344 186.4063,30.2344 Q183.9063,30.2344 182.5781,28.5938 Q181.2656,26.9375 181.2656,23.8125 Q181.2656,20.6875 182.5781,19.0313 Q183.9063,17.375 186.4063,17.375 Q187.1094,17.375 187.75,17.5313 Q188.4063,17.6875 188.9688,17.9844 L188.9688,20.7031 Q188.3438,20.125 187.75,19.8594 Q187.1563,19.5781 186.5313,19.5781 Q185.1875,19.5781 184.5,20.6563 Q183.8125,21.7188 183.8125,23.8125 Q183.8125,25.9063 184.5,26.9844 Q185.1875,28.0469 186.5313,28.0469 Q187.1563,28.0469 187.75,27.7813 Q188.3438,27.5 188.9688,26.9219 L188.9688,29.6406 Z "/><text fill="#000000" font-family="sans-serif" font-size="12" lengthAdjust="spacingAndGlyphs" textLength="125" x="200" y="28.1543">IPointerClickHandler</text><line style="stroke: #A80036; stroke-width: 1.5;" x1="172" x2="327" y1="40" y2="40"/><line style="stroke: #A80036; stroke-width: 1.5;" x1="172" x2="327" y1="48" y2="48"/><!--MD5=[3ead63e7a6dbaeb1466e3b865cfef6ea]
class UnityEvent--><rect fill="#FEFECE" filter="url(#f4gueae4fqvrf)" height="48" id="UnityEvent" style="stroke: #A80036; stroke-width: 1.5;" width="98" x="111.5" y="237"/><ellipse cx="126.5" cy="253" fill="#ADD1B2" rx="11" ry="11" style="stroke: #A80036; stroke-width: 1.0;"/><path d="M129.4688,258.6406 Q128.8906,258.9375 128.25,259.0781 Q127.6094,259.2344 126.9063,259.2344 Q124.4063,259.2344 123.0781,257.5938 Q121.7656,255.9375 121.7656,252.8125 Q121.7656,249.6875 123.0781,248.0313 Q124.4063,246.375 126.9063,246.375 Q127.6094,246.375 128.25,246.5313 Q128.9063,246.6875 129.4688,246.9844 L129.4688,249.7031 Q128.8438,249.125 128.25,248.8594 Q127.6563,248.5781 127.0313,248.5781 Q125.6875,248.5781 125,249.6563 Q124.3125,250.7188 124.3125,252.8125 Q124.3125,254.9063 125,255.9844 Q125.6875,257.0469 127.0313,257.0469 Q127.6563,257.0469 128.25,256.7813 Q128.8438,256.5 129.4688,255.9219 L129.4688,258.6406 Z "/><text fill="#000000" font-family="sans-serif" font-size="12" lengthAdjust="spacingAndGlyphs" textLength="66" x="140.5" y="257.1543">UnityEvent</text><line style="stroke: #A80036; stroke-width: 1.5;" x1="112.5" x2="208.5" y1="269" y2="269"/><line style="stroke: #A80036; stroke-width: 1.5;" x1="112.5" x2="208.5" y1="277" y2="277"/><!--MD5=[f41c5903a555118ad0d419b3486f3fc5]
reverse link MonoBehaviour to UIClickHandler--><path d="M102.24,71.85 C113.59,86.2 126.26,102.22 136.89,115.65 " fill="none" id="MonoBehaviour&lt;-UIClickHandler" style="stroke: #A80036; stroke-width: 1.0;"/><polygon fill="none" points="96.64,76.07,89.73,56.04,107.62,67.38,96.64,76.07" style="stroke: #A80036; stroke-width: 1.0;"/><!--MD5=[3a40b159b42d7479e06c81cfdac08caa]
reverse link IPointerClickHandler to UIClickHandler--><path d="M218.76,71.85 C207.41,86.2 194.74,102.22 184.11,115.65 " fill="none" id="IPointerClickHandler&lt;-UIClickHandler" style="stroke: #A80036; stroke-width: 1.0;"/><polygon fill="none" points="213.38,67.38,231.27,56.04,224.36,76.07,213.38,67.38" style="stroke: #A80036; stroke-width: 1.0;"/><!--MD5=[6e9f48f527809809d600b20440a61d89]
link UIClickHandler to UnityEvent--><path d="M137.08,177.06 C133.22,193.93 133.31,214.98 137.36,231.65 " fill="none" id="UIClickHandler-&gt;UnityEvent" style="stroke: #A80036; stroke-width: 1.0;"/><polygon fill="#A80036" points="138.74,236.67,140.2017,226.9302,137.4099,231.8502,132.4899,229.0584,138.74,236.67" style="stroke: #A80036; stroke-width: 1.0;"/><text fill="#000000" font-family="sans-serif" font-size="13" lengthAdjust="spacingAndGlyphs" textLength="69" x="56.0266" y="225.9945">onLeftClick</text><!--MD5=[6e9f48f527809809d600b20440a61d89]
link UIClickHandler to UnityEvent--><path d="M160.5,177.06 C160.5,193.93 160.5,214.98 160.5,231.65 " fill="none" id="UIClickHandler-&gt;UnityEvent-1" style="stroke: #A80036; stroke-width: 1.0;"/><polygon fill="#A80036" points="160.5,236.67,164.5,227.67,160.5,231.67,156.5,227.67,160.5,236.67" style="stroke: #A80036; stroke-width: 1.0;"/><text fill="#000000" font-family="sans-serif" font-size="13" lengthAdjust="spacingAndGlyphs" textLength="77" x="169.8844" y="225.9945">onRightClick</text><!--MD5=[6e9f48f527809809d600b20440a61d89]
link UIClickHandler to UnityEvent--><path d="M183.92,177.06 C187.78,193.93 187.69,214.98 183.64,231.65 " fill="none" id="UIClickHandler-&gt;UnityEvent-2" style="stroke: #A80036; stroke-width: 1.0;"/><polygon fill="#A80036" points="182.26,236.67,188.5101,229.0584,183.5901,231.8502,180.7983,226.9302,182.26,236.67" style="stroke: #A80036; stroke-width: 1.0;"/><text fill="#000000" font-family="sans-serif" font-size="13" lengthAdjust="spacingAndGlyphs" textLength="86" x="217.0685" y="239.7265">onMiddleClick</text><!--MD5=[71611ca064e3a23c05c6a17a62e23758]
@startuml
class UIClickHandler {
    + OnPointerClick(eventData:PointerEventData) : void
}
MonoBehaviour <|- - UIClickHandler
IPointerClickHandler <|- - UIClickHandler
UIClickHandler - -> "onLeftClick" UnityEvent
UIClickHandler - -> "onRightClick" UnityEvent
UIClickHandler - -> "onMiddleClick" UnityEvent
@enduml

PlantUML version 1.2020.02(Sun Mar 01 10:22:07 GMT 2020)
(GPL source distribution)
Java Runtime: OpenJDK Runtime Environment
JVM: OpenJDK 64-Bit Server VM
Java Version: 11.0.9+11-Ubuntu-0ubuntu1
Operating System: Linux
Default Encoding: ANSI_X3.4-1968
Language: en
Country: US
--></g></svg>